<svg xmlns="http://www.w3.org/2000/svg" xmlns:xlink="http://www.w3.org/1999/xlink" id="Layer_1" x="0px" y="0px" viewBox="0 0 300 100" style="enable-background:new 0 0 300 100;" xml:space="preserve">
<style type="text/css">
	.st0{fill:#A9AEB3;}
	.st1{fill:#FFFFFF;}
</style>
<path class="st0" d="M4.1,5.8c0.9,0,1.6-0.7,1.6-1.6c0-0.9-0.7-1.6-1.6-1.6c-0.9,0-1.6,0.7-1.6,1.6C2.5,5.1,3.2,5.8,4.1,5.8z"></path>
<path class="st0" d="M19.4,6.6c1.3,0,2.4-1.1,2.4-2.4c0-1.3-1.1-2.4-2.4-2.4c-1.3,0-2.4,1.1-2.4,2.4C17,5.5,18.1,6.6,19.4,6.6z"></path>
<path class="st0" d="M34.7,7.2c1.7,0,3-1.3,3-3s-1.3-3-3-3c-1.7,0-3,1.3-3,3S33,7.2,34.7,7.2z"></path>
<path class="st0" d="M49.9,1c-1.8,0-3.2,1.4-3.2,3.2c0,1.8,1.4,3.2,3.2,3.2c1.8,0,3.2-1.4,3.2-3.2C53.1,2.4,51.7,1,49.9,1"></path>
<path class="st0" d="M65.2,7.2c1.7,0,3-1.3,3-3s-1.3-3-3-3c-1.7,0-3,1.3-3,3S63.5,7.2,65.2,7.2z"></path>
<path class="st0" d="M80.4,6.7c1.4,0,2.5-1.1,2.5-2.5c0-1.4-1.1-2.5-2.5-2.5c-1.4,0-2.5,1.1-2.5,2.5C77.9,5.6,79.1,6.7,80.4,6.7z"></path>
<path class="st0" d="M95.7,5.9c0.9,0,1.7-0.8,1.7-1.7c0-0.9-0.8-1.7-1.7-1.7c-0.9,0-1.7,0.8-1.7,1.7C94,5.2,94.8,5.9,95.7,5.9z"></path>
<path class="st0" d="M4.1,21.9c1.3,0,2.4-1.1,2.4-2.4c0-1.3-1.1-2.4-2.4-2.4c-1.3,0-2.4,1.1-2.4,2.4C1.7,20.8,2.8,21.9,4.1,21.9z"></path>
<path class="st0" d="M19.4,22.9c1.9,0,3.4-1.5,3.4-3.4s-1.5-3.4-3.4-3.4S16,17.6,16,19.5S17.5,22.9,19.4,22.9z"></path>
<path class="st0" d="M34.7,23.6c2.3,0,4.1-1.9,4.1-4.1c0-2.3-1.9-4.1-4.1-4.1c-2.3,0-4.1,1.9-4.1,4.1C30.5,21.8,32.4,23.6,34.7,23.6  z"></path>
<path class="st0" d="M49.9,24c2.5,0,4.5-2,4.5-4.5c0-2.5-2-4.5-4.5-4.5c-2.5,0-4.5,2-4.5,4.5C45.4,22,47.4,24,49.9,24z"></path>
<circle class="st0" cx="65.2" cy="19.5" r="4.2"></circle>
<path class="st0" d="M80.4,22.9c1.9,0,3.5-1.6,3.5-3.5S82.4,16,80.4,16S77,17.6,77,19.5S78.5,22.9,80.4,22.9z"></path>
<path class="st0" d="M95.7,22c1.4,0,2.5-1.1,2.5-2.5c0-1.4-1.1-2.5-2.5-2.5c-1.4,0-2.5,1.1-2.5,2.5C93.2,20.9,94.3,22,95.7,22z"></path>
<circle class="st0" cx="4.1" cy="34.7" r="3"></circle>
<circle class="st0" cx="19.4" cy="34.7" r="4.1"></circle>
<path class="st0" d="M34.7,39.9c2.9,0,5.2-2.3,5.2-5.2s-2.3-5.2-5.2-5.2c-2.9,0-5.2,2.3-5.2,5.2S31.8,39.9,34.7,39.9z"></path>
<circle class="st0" cx="49.9" cy="34.7" r="5.7"></circle>
<circle class="st0" cx="65.2" cy="34.7" r="5.2"></circle>
<circle class="st0" cx="80.4" cy="34.7" r="4.2"></circle>
<path class="st0" d="M95.7,37.8c1.7,0,3.1-1.4,3.1-3.1s-1.4-3.1-3.1-3.1c-1.7,0-3.1,1.4-3.1,3.1S94,37.8,95.7,37.8z"></path>
<path class="st0" d="M4.1,53.2c1.8,0,3.2-1.4,3.2-3.2c0-1.8-1.4-3.2-3.2-3.2c-1.8,0-3.2,1.4-3.2,3.2C0.9,51.8,2.4,53.2,4.1,53.2z"></path>
<path class="st0" d="M19.4,54.5c2.5,0,4.5-2,4.5-4.5c0-2.5-2-4.5-4.5-4.5s-4.5,2-4.5,4.5C14.9,52.5,16.9,54.5,19.4,54.5z"></path>
<circle class="st0" cx="34.7" cy="50" r="5.7"></circle>
<circle class="st0" cx="49.9" cy="50" r="6.6"></circle>
<circle class="st0" cx="65.2" cy="50" r="5.8"></circle>
<path class="st0" d="M80.4,54.6c2.5,0,4.6-2,4.6-4.6c0-2.5-2-4.6-4.6-4.6c-2.5,0-4.6,2-4.6,4.6C75.9,52.5,77.9,54.6,80.4,54.6z"></path>
<path class="st0" d="M95.7,53.3c1.8,0,3.3-1.5,3.3-3.3c0-1.8-1.5-3.3-3.3-3.3c-1.8,0-3.3,1.5-3.3,3.3C92.4,51.8,93.9,53.3,95.7,53.3  z"></path>
<circle class="st0" cx="4.1" cy="65.3" r="3"></circle>
<circle class="st0" cx="19.4" cy="65.3" r="4.2"></circle>
<path class="st0" d="M34.7,70.5c2.9,0,5.2-2.3,5.2-5.2c0-2.9-2.3-5.2-5.2-5.2c-2.9,0-5.2,2.3-5.2,5.2C29.4,68.2,31.8,70.5,34.7,70.5  z"></path>
<circle class="st0" cx="49.9" cy="65.3" r="5.8"></circle>
<path class="st0" d="M65.2,70.6c2.9,0,5.3-2.4,5.3-5.3c0-2.9-2.4-5.3-5.3-5.3c-2.9,0-5.3,2.4-5.3,5.3C59.8,68.2,62.2,70.6,65.2,70.6  z"></path>
<circle class="st0" cx="80.4" cy="65.3" r="4.3"></circle>
<path class="st0" d="M95.7,68.4c1.7,0,3.1-1.4,3.1-3.1c0-1.7-1.4-3.1-3.1-3.1c-1.7,0-3.1,1.4-3.1,3.1C92.6,67,94,68.4,95.7,68.4z"></path>
<path class="st0" d="M4.1,83c1.4,0,2.5-1.1,2.5-2.5c0-1.4-1.1-2.5-2.5-2.5c-1.4,0-2.5,1.1-2.5,2.5C1.6,81.9,2.8,83,4.1,83z"></path>
<circle class="st0" cx="19.4" cy="80.5" r="3.5"></circle>
<path class="st0" d="M34.7,84.8c2.3,0,4.2-1.9,4.2-4.2s-1.9-4.2-4.2-4.2c-2.3,0-4.2,1.9-4.2,4.2S32.3,84.8,34.7,84.8z"></path>
<path class="st0" d="M49.9,85.1c2.5,0,4.6-2,4.6-4.6c0-2.5-2-4.6-4.6-4.6s-4.6,2-4.6,4.6C45.3,83,47.4,85.1,49.9,85.1z"></path>
<circle class="st0" cx="65.2" cy="80.5" r="4.3"></circle>
<circle class="st0" cx="80.4" cy="80.5" r="3.6"></circle>
<path class="st0" d="M95.7,83.1c1.4,0,2.6-1.2,2.6-2.6c0-1.4-1.2-2.6-2.6-2.6c-1.4,0-2.6,1.2-2.6,2.6C93.1,82,94.3,83.1,95.7,83.1z"></path>
<path class="st0" d="M4.1,97.5c0.9,0,1.7-0.8,1.7-1.7c0-0.9-0.8-1.7-1.7-1.7c-0.9,0-1.7,0.8-1.7,1.7C2.4,96.7,3.2,97.5,4.1,97.5z"></path>
<path class="st0" d="M19.4,98.3c1.4,0,2.5-1.1,2.5-2.5c0-1.4-1.1-2.5-2.5-2.5c-1.4,0-2.5,1.1-2.5,2.5C16.9,97.2,18,98.3,19.4,98.3z"></path>
<path class="st0" d="M34.7,98.9c1.7,0,3.1-1.4,3.1-3.1c0-1.7-1.4-3.1-3.1-3.1s-3.1,1.4-3.1,3.1C31.6,97.5,32.9,98.9,34.7,98.9z"></path>
<path class="st0" d="M49.9,99.1c1.8,0,3.3-1.5,3.3-3.3c0-1.8-1.5-3.3-3.3-3.3c-1.8,0-3.3,1.5-3.3,3.3C46.6,97.6,48.1,99.1,49.9,99.1  z"></path>
<path class="st0" d="M65.2,98.9c1.7,0,3.1-1.4,3.1-3.1c0-1.7-1.4-3.1-3.1-3.1S62,94.1,62,95.8C62,97.5,63.4,98.9,65.2,98.9z"></path>
<path class="st0" d="M80.4,98.4c1.4,0,2.6-1.2,2.6-2.6c0-1.4-1.2-2.6-2.6-2.6c-1.4,0-2.6,1.2-2.6,2.6C77.9,97.2,79,98.4,80.4,98.4z"></path>
<path class="st0" d="M95.7,97.6c1,0,1.8-0.8,1.8-1.8c0-1-0.8-1.8-1.8-1.8c-1,0-1.8,0.8-1.8,1.8C93.9,96.8,94.7,97.6,95.7,97.6z"></path>
<g>
	<path class="st1" d="M134.9,43.1c-0.7-0.4-1.2-0.9-1.5-1.4c-0.3-0.5-0.4-1-0.4-1.6c0-0.6,0.2-1.2,0.5-1.6c0.3-0.4,0.8-0.7,1.3-0.7   c0.5,0,1.3,0.3,2.4,1c1.2,0.6,2.3,1.2,3.4,1.6c1.1,0.4,2.5,0.6,4.1,0.6c1.9,0,3.3-0.3,4.3-1c1-0.7,1.6-1.7,1.6-2.9   c0-0.8-0.2-1.5-0.6-1.9c-0.4-0.5-1.1-0.9-2.1-1.3c-1-0.4-2.5-0.8-4.5-1.2c-3.4-0.8-5.8-1.8-7.3-3.1c-1.5-1.3-2.2-3.1-2.2-5.4   c0-1.7,0.5-3.3,1.4-4.7c1-1.4,2.3-2.5,4-3.2c1.7-0.8,3.6-1.2,5.8-1.2c1.5,0,3.1,0.2,4.5,0.6c1.5,0.4,2.8,1,3.9,1.8   c1.3,0.9,1.9,1.9,1.9,3.1c0,0.6-0.2,1.2-0.5,1.6c-0.4,0.4-0.8,0.7-1.3,0.7c-0.3,0-0.7-0.1-1-0.2c-0.3-0.2-0.8-0.4-1.4-0.8   c-1-0.6-2-1.2-2.9-1.5c-0.9-0.4-2-0.5-3.4-0.5c-1.6,0-2.9,0.4-3.9,1.1c-1,0.7-1.5,1.7-1.5,3c0,1.1,0.5,2,1.4,2.6   c0.9,0.6,2.6,1.2,5.1,1.8c2.6,0.6,4.6,1.2,6.1,1.9c1.5,0.7,2.5,1.6,3.2,2.7c0.6,1.1,1,2.4,1,4.1c0,2.6-1.1,4.7-3.2,6.3   c-2.1,1.6-4.9,2.4-8.4,2.4C140.6,45.7,137.4,44.8,134.9,43.1z"></path>
	<path class="st1" d="M190.5,38.5c0.3,0.4,0.5,1,0.5,1.7c0,1.2-0.7,2.2-2.1,3c-1.4,0.8-2.8,1.4-4.4,1.9c-1.6,0.4-3.1,0.7-4.6,0.7   c-4.5,0-8-1.4-10.6-4.1c-2.6-2.7-3.9-6.5-3.9-11.2c0-3,0.6-5.7,1.7-8.1c1.1-2.3,2.7-4.2,4.8-5.5c2.1-1.3,4.4-1.9,7-1.9   c3.8,0,6.8,1.3,9,3.8c2.2,2.5,3.3,6,3.3,10.3c0,1.6-0.7,2.4-2.1,2.4h-17.9c0.4,6.3,3.3,9.4,8.6,9.4c1.4,0,2.7-0.2,3.7-0.6   c1-0.4,2.1-0.9,3.3-1.6c0.1-0.1,0.4-0.3,1-0.5c0.5-0.3,1-0.4,1.3-0.4C189.7,37.8,190.1,38,190.5,38.5z M173.7,21.7   c-1.4,1.5-2.2,3.6-2.4,6.3h14.9c-0.1-2.7-0.8-4.9-2-6.3c-1.2-1.5-2.9-2.2-5.1-2.2C176.8,19.4,175,20.2,173.7,21.7z"></path>
	<path class="st1" d="M222.7,15.5c0.4-0.3,0.9-0.4,1.4-0.4c0.7,0,1.4,0.3,1.9,0.8c0.6,0.5,0.8,1.2,0.8,1.9c0,0.4-0.1,0.8-0.2,1.2   l-11.1,24.6c-0.3,0.6-0.7,1.1-1.2,1.5c-0.6,0.3-1.1,0.5-1.8,0.5c-0.6,0-1.2-0.2-1.8-0.5c-0.6-0.3-1-0.8-1.2-1.5l-11.1-24.6   c-0.2-0.3-0.2-0.7-0.2-1.2c0-0.7,0.3-1.4,0.9-1.9s1.3-0.8,2.1-0.8c1.1,0,1.9,0.6,2.5,1.7l9,20.9l8.9-20.8   C221.9,16.3,222.3,15.8,222.7,15.5z"></path>
	<path class="st1" d="M259.1,38.5c0.3,0.4,0.5,1,0.5,1.7c0,1.2-0.7,2.2-2.1,3c-1.4,0.8-2.8,1.4-4.4,1.9c-1.6,0.4-3.1,0.7-4.6,0.7   c-4.5,0-8-1.4-10.6-4.1c-2.6-2.7-3.9-6.5-3.9-11.2c0-3,0.6-5.7,1.7-8.1c1.1-2.3,2.7-4.2,4.8-5.5c2.1-1.3,4.4-1.9,7-1.9   c3.8,0,6.8,1.3,9,3.8c2.2,2.5,3.3,6,3.3,10.3c0,1.6-0.7,2.4-2.1,2.4h-17.9c0.4,6.3,3.3,9.4,8.6,9.4c1.4,0,2.7-0.2,3.7-0.6   c1-0.4,2.1-0.9,3.3-1.6c0.1-0.1,0.4-0.3,1-0.5c0.5-0.3,1-0.4,1.3-0.4C258.3,37.8,258.8,38,259.1,38.5z M242.3,21.7   c-1.4,1.5-2.2,3.6-2.4,6.3h14.9c-0.1-2.7-0.8-4.9-2-6.3c-1.2-1.5-2.9-2.2-5.1-2.2C245.4,19.4,243.7,20.2,242.3,21.7z"></path>
	<path class="st1" d="M296,26.9v15.8c0,0.9-0.3,1.6-0.8,2.2c-0.5,0.5-1.2,0.8-2.2,0.8c-0.9,0-1.6-0.3-2.1-0.8   c-0.5-0.5-0.8-1.2-0.8-2.1V27.2c0-2.5-0.5-4.3-1.4-5.5c-0.9-1.2-2.4-1.8-4.4-1.8c-2.4,0-4.2,0.8-5.7,2.3c-1.4,1.5-2.1,3.6-2.1,6.2   v14.2c0,0.9-0.3,1.6-0.8,2.1c-0.5,0.5-1.2,0.8-2.1,0.8c-0.9,0-1.6-0.3-2.1-0.8c-0.5-0.5-0.8-1.2-0.8-2.1V18c0-0.8,0.3-1.5,0.8-2.1   c0.6-0.5,1.3-0.8,2.1-0.8c0.8,0,1.5,0.3,2,0.8c0.5,0.5,0.8,1.2,0.8,2.1v2.5c0.9-1.8,2.2-3.1,3.9-4.1c1.7-0.9,3.5-1.4,5.6-1.4   C292.6,14.9,296,18.9,296,26.9z"></path>
</g>
<g>
	<path class="st1" d="M136.6,82.1c-1-0.6-1.9-1.5-2.4-2.7c-0.6-1.2-0.9-2.5-0.9-4c0-1.5,0.3-2.9,0.9-4.1c0.6-1.2,1.4-2.1,2.5-2.8   c1.1-0.7,2.3-1,3.7-1c0.7,0,1.5,0.1,2.2,0.3c0.7,0.2,1.4,0.5,2,0.9c0.6,0.4,0.9,1,0.9,1.6c0,0.3-0.1,0.6-0.3,0.9   c-0.2,0.2-0.4,0.4-0.7,0.4c-0.2,0-0.4,0-0.5-0.1c-0.2-0.1-0.4-0.2-0.7-0.4c-0.5-0.3-0.9-0.6-1.4-0.7c-0.4-0.2-0.9-0.3-1.5-0.3   c-1.3,0-2.4,0.5-3.1,1.4s-1.1,2.2-1.1,3.9s0.4,3,1.1,3.9c0.7,0.9,1.7,1.4,3.1,1.4c0.6,0,1.1-0.1,1.5-0.3c0.4-0.2,0.9-0.4,1.4-0.7   c0.2-0.1,0.4-0.3,0.6-0.4c0.2-0.1,0.4-0.2,0.6-0.2c0.3,0,0.5,0.1,0.7,0.4c0.2,0.2,0.3,0.5,0.3,0.9c0,0.3-0.1,0.5-0.2,0.8   c-0.1,0.2-0.4,0.5-0.7,0.7c-0.6,0.4-1.3,0.7-2,0.9c-0.8,0.2-1.6,0.3-2.4,0.3C138.9,83,137.7,82.7,136.6,82.1z"></path>
	<path class="st1" d="M165.9,68.8c0,0.4-0.1,0.8-0.3,1c-0.2,0.2-0.6,0.4-1.1,0.4l-0.9,0.1c-1.2,0.1-2.1,0.6-2.7,1.3   c-0.6,0.8-0.9,1.7-0.9,2.8v7c0,0.5-0.1,0.9-0.4,1.1c-0.3,0.2-0.6,0.4-1.1,0.4c-0.4,0-0.8-0.1-1.1-0.4c-0.3-0.2-0.4-0.6-0.4-1.1V69   c0-0.5,0.1-0.8,0.4-1.1c0.3-0.3,0.6-0.4,1.1-0.4c0.4,0,0.7,0.1,1,0.4c0.3,0.3,0.4,0.6,0.4,1.1v1.5c0.4-0.9,1-1.6,1.7-2   c0.7-0.5,1.6-0.7,2.5-0.8l0.4,0C165.4,67.5,165.9,67.9,165.9,68.8z"></path>
	<path class="st1" d="M188,79.4c0.2,0.2,0.3,0.5,0.3,0.9c0,0.6-0.4,1.1-1.1,1.5c-0.7,0.4-1.4,0.7-2.2,0.9c-0.8,0.2-1.6,0.3-2.3,0.3   c-2.3,0-4-0.7-5.3-2.1c-1.3-1.4-2-3.3-2-5.6c0-1.5,0.3-2.9,0.9-4.1c0.6-1.2,1.4-2.1,2.4-2.8c1-0.7,2.2-1,3.5-1   c1.9,0,3.4,0.6,4.5,1.9c1.1,1.3,1.7,3,1.7,5.2c0,0.8-0.4,1.2-1.1,1.2h-9c0.2,3.2,1.6,4.7,4.4,4.7c0.7,0,1.3-0.1,1.9-0.3   c0.5-0.2,1.1-0.5,1.7-0.8c0.1,0,0.2-0.1,0.5-0.3c0.3-0.1,0.5-0.2,0.7-0.2C187.6,79,187.8,79.1,188,79.4z M179.5,70.9   c-0.7,0.8-1.1,1.8-1.2,3.2h7.5c-0.1-1.4-0.4-2.4-1-3.2c-0.6-0.7-1.5-1.1-2.6-1.1C181.1,69.8,180.2,70.1,179.5,70.9z"></path>
	<path class="st1" d="M210.6,69c0.9,1,1.4,2.5,1.4,4.6v7.9c0,0.5-0.1,0.8-0.4,1.1c-0.3,0.3-0.6,0.4-1.1,0.4c-0.4,0-0.8-0.1-1-0.4   c-0.3-0.3-0.4-0.6-0.4-1.1v-1.1c-0.4,0.9-0.9,1.5-1.7,2S205.9,83,205,83c-0.9,0-1.8-0.2-2.6-0.6c-0.8-0.4-1.4-0.9-1.8-1.6   c-0.4-0.7-0.7-1.5-0.7-2.4c0-1.1,0.2-2,0.8-2.6c0.5-0.6,1.4-1.1,2.7-1.3c1.2-0.3,2.9-0.4,5.1-0.4h0.7v-0.9c0-1.1-0.2-2-0.7-2.5   c-0.4-0.5-1.2-0.8-2.2-0.8c-0.7,0-1.3,0.1-1.9,0.3c-0.6,0.2-1.3,0.4-2,0.8c-0.5,0.3-0.9,0.5-1.1,0.5c-0.3,0-0.5-0.1-0.7-0.3   c-0.2-0.2-0.3-0.5-0.3-0.9c0-0.3,0.1-0.6,0.2-0.8c0.2-0.2,0.4-0.5,0.8-0.7c0.7-0.4,1.5-0.7,2.4-0.9c0.9-0.2,1.8-0.4,2.7-0.4   C208.3,67.5,209.7,68,210.6,69z M208.1,79.6c0.7-0.8,1-1.7,1-3v-0.8h-0.5c-1.5,0-2.7,0.1-3.5,0.2c-0.8,0.1-1.4,0.4-1.8,0.7   c-0.4,0.3-0.5,0.8-0.5,1.5c0,0.7,0.3,1.3,0.8,1.8c0.5,0.5,1.1,0.7,1.9,0.7C206.6,80.7,207.4,80.3,208.1,79.6z"></path>
	<path class="st1" d="M232.7,80.9c0.2,0.2,0.3,0.5,0.3,0.8c0,0.4-0.2,0.7-0.5,0.9c-0.3,0.2-0.7,0.3-1.3,0.3l-0.8-0.1   c-1.6-0.1-2.8-0.6-3.5-1.5c-0.8-0.9-1.2-2.2-1.2-3.9v-7.2H224c-0.9,0-1.3-0.4-1.3-1.2c0-0.4,0.1-0.7,0.3-0.9   c0.2-0.2,0.5-0.3,0.9-0.3h1.8v-3.2c0-0.5,0.1-0.8,0.4-1.1c0.3-0.3,0.6-0.4,1.1-0.4c0.4,0,0.8,0.1,1.1,0.4c0.3,0.3,0.4,0.6,0.4,1.1   v3.2h2.9c0.4,0,0.7,0.1,0.9,0.3c0.2,0.2,0.3,0.5,0.3,0.9c0,0.4-0.1,0.7-0.3,0.9c-0.2,0.2-0.5,0.3-0.9,0.3h-2.9v7.4   c0,1,0.2,1.7,0.6,2.1s1,0.7,1.7,0.8l0.8,0.1C232.2,80.6,232.5,80.7,232.7,80.9z"></path>
	<path class="st1" d="M244,64.1c-0.3-0.3-0.5-0.8-0.5-1.3c0-0.5,0.2-1,0.5-1.3c0.3-0.3,0.8,1.3,1.3,1.3c0.5,0,1-1.6,1.3-1.3   c0.3,0.3,0.5,0.7,0.5,1.3c0,0.5-0.2,1-0.5,1.3c-0.3,0.3-0.8,0.5-1.3,0.5C244.8,64.6,244.3,64.4,244,64.1z M244.3,82.6   c-0.3-0.2-0.4-0.6-0.4-1.1V69.1c0-0.5,0.1-0.9,0.4-1.1c0.3-0.3,0.6-0.4,1.1-0.4c0.4,0,0.8,0.1,1.1,0.4c0.3,0.3,0.4,0.6,0.4,1.1   v12.4c0,0.5-0.1,0.9-0.4,1.1c-0.3,0.2-0.6,0.4-1.1,0.4C244.9,82.9,244.6,82.8,244.3,82.6z"></path>
	<path class="st1" d="M270.4,67.8c0.2-0.1,0.5-0.2,0.7-0.2c0.4,0,0.7,0.1,1,0.4c0.3,0.3,0.4,0.6,0.4,0.9c0,0.2,0,0.4-0.1,0.6   l-5.6,12.4c-0.1,0.3-0.3,0.6-0.6,0.8c-0.3,0.2-0.6,0.3-0.9,0.3c-0.3,0-0.6-0.1-0.9-0.3c-0.3-0.2-0.5-0.4-0.6-0.8l-5.6-12.4   c-0.1-0.2-0.1-0.4-0.1-0.6c0-0.4,0.2-0.7,0.5-0.9c0.3-0.3,0.7-0.4,1.1-0.4c0.6,0,1,0.3,1.3,0.9l4.5,10.5l4.5-10.5   C270,68.2,270.1,67.9,270.4,67.8z"></path>
	<path class="st1" d="M295.3,79.4c0.2,0.2,0.3,0.5,0.3,0.9c0,0.6-0.4,1.1-1.1,1.5c-0.7,0.4-1.4,0.7-2.2,0.9   c-0.8,0.2-1.6,0.3-2.3,0.3c-2.3,0-4-0.7-5.3-2.1c-1.3-1.4-2-3.3-2-5.6c0-1.5,0.3-2.9,0.9-4.1c0.6-1.2,1.4-2.1,2.4-2.8   c1-0.7,2.2-1,3.5-1c1.9,0,3.4,0.6,4.5,1.9c1.1,1.3,1.7,3,1.7,5.2c0,0.8-0.4,1.2-1.1,1.2h-9c0.2,3.2,1.6,4.7,4.4,4.7   c0.7,0,1.3-0.1,1.9-0.3c0.5-0.2,1.1-0.5,1.7-0.8c0.1,0,0.2-0.1,0.5-0.3c0.3-0.1,0.5-0.2,0.7-0.2C294.9,79,295.1,79.1,295.3,79.4z    M286.8,70.9c-0.7,0.8-1.1,1.8-1.2,3.2h7.5c-0.1-1.4-0.4-2.4-1-3.2c-0.6-0.7-1.5-1.1-2.6-1.1C288.4,69.8,287.5,70.1,286.8,70.9z"></path>
</g>
<path class="st0" d="M46.2-32.4"></path>
</svg>