<svg xmlns="http://www.w3.org/2000/svg" xmlns:xlink="http://www.w3.org/1999/xlink" id="Layer_1" x="0px" y="0px" viewBox="0 0 100 164" style="enable-background:new 0 0 100 164;" xml:space="preserve">
<style type="text/css">
	.st0{fill:#A9AEB3;}
	.st1{fill:#FFFFFF;}
</style>
<g>
	<path class="st0" d="M3.4,4.9C4.3,4.9,5,4.2,5,3.3c0-0.9-0.7-1.6-1.6-1.6c-0.9,0-1.6,0.7-1.6,1.6C1.7,4.2,2.4,4.9,3.4,4.9z"></path>
	<path class="st0" d="M18.9,5.7c1.4,0,2.5-1.1,2.5-2.5c0-1.4-1.1-2.5-2.5-2.5c-1.4,0-2.5,1.1-2.5,2.5C16.5,4.6,17.6,5.7,18.9,5.7z"></path>
	<path class="st0" d="M34.5,6.3c1.7,0,3.1-1.4,3.1-3.1s-1.4-3.1-3.1-3.1c-1.7,0-3.1,1.4-3.1,3.1S32.8,6.3,34.5,6.3z"></path>
	<path class="st0" d="M50,6.6c1.8,0,3.3-1.5,3.3-3.3C53.3,1.5,51.8,0,50,0c-1.8,0-3.3,1.5-3.3,3.3C46.8,5.1,48.2,6.6,50,6.6z"></path>
	<path class="st0" d="M65.6,6.3c1.7,0,3.1-1.4,3.1-3.1s-1.4-3.1-3.1-3.1c-1.7,0-3.1,1.4-3.1,3.1S63.9,6.3,65.6,6.3z"></path>
	<path class="st0" d="M81.1,5.8c1.4,0,2.5-1.1,2.5-2.5c0-1.4-1.1-2.5-2.5-2.5c-1.4,0-2.5,1.1-2.5,2.5C78.6,4.7,79.7,5.8,81.1,5.8z"></path>
	<path class="st0" d="M96.7,5c1,0,1.7-0.8,1.7-1.7c0-1-0.8-1.7-1.7-1.7c-1,0-1.7,0.8-1.7,1.7C95,4.2,95.8,5,96.7,5z"></path>
	<path class="st0" d="M3.4,21.3c1.4,0,2.5-1.1,2.5-2.5c0-1.4-1.1-2.5-2.5-2.5c-1.4,0-2.5,1.1-2.5,2.5C0.9,20.2,2,21.3,3.4,21.3z"></path>
	<path class="st0" d="M18.9,22.3c1.9,0,3.5-1.5,3.5-3.5c0-1.9-1.5-3.5-3.5-3.5c-1.9,0-3.5,1.5-3.5,3.5C15.5,20.7,17,22.3,18.9,22.3z   "></path>
	<path class="st0" d="M34.5,23.1c2.3,0,4.2-1.9,4.2-4.2c0-2.3-1.9-4.2-4.2-4.2c-2.3,0-4.2,1.9-4.2,4.2   C30.2,21.2,32.1,23.1,34.5,23.1z"></path>
	<path class="st0" d="M50,23.4c2.5,0,4.6-2,4.6-4.6c0-2.5-2-4.6-4.6-4.6c-2.5,0-4.6,2-4.6,4.6C45.5,21.4,47.5,23.4,50,23.4z"></path>
	<circle class="st0" cx="65.6" cy="18.8" r="4.3"></circle>
	<path class="st0" d="M81.1,22.4c2,0,3.5-1.6,3.5-3.5s-1.6-3.5-3.5-3.5c-2,0-3.5,1.6-3.5,3.5S79.2,22.4,81.1,22.4z"></path>
	<path class="st0" d="M96.7,21.4c1.4,0,2.5-1.1,2.5-2.5c0-1.4-1.1-2.5-2.5-2.5c-1.4,0-2.5,1.1-2.5,2.5   C94.2,20.2,95.3,21.4,96.7,21.4z"></path>
	<circle class="st0" cx="3.4" cy="34.4" r="3.1"></circle>
	<circle class="st0" cx="18.9" cy="34.4" r="4.2"></circle>
	<path class="st0" d="M34.5,39.7c2.9,0,5.3-2.4,5.3-5.3c0-2.9-2.4-5.3-5.3-5.3c-2.9,0-5.3,2.4-5.3,5.3   C29.2,37.3,31.6,39.7,34.5,39.7z"></path>
	<circle class="st0" cx="50" cy="34.4" r="5.8"></circle>
	<circle class="st0" cx="65.6" cy="34.4" r="5.4"></circle>
	<circle class="st0" cx="81.1" cy="34.4" r="4.3"></circle>
	<path class="st0" d="M96.7,37.5c1.7,0,3.1-1.4,3.1-3.1c0-1.7-1.4-3.1-3.1-3.1s-3.1,1.4-3.1,3.1C93.6,36.1,95,37.5,96.7,37.5z"></path>
	<path class="st0" d="M3.4,53.2c1.8,0,3.3-1.5,3.3-3.3c0-1.8-1.5-3.3-3.3-3.3c-1.8,0-3.3,1.5-3.3,3.3C0.1,51.8,1.5,53.2,3.4,53.2z"></path>
	<path class="st0" d="M18.9,54.5c2.5,0,4.6-2,4.6-4.6c0-2.5-2-4.6-4.6-4.6s-4.6,2-4.6,4.6C14.3,52.5,16.4,54.5,18.9,54.5z"></path>
	<circle class="st0" cx="34.5" cy="50" r="5.8"></circle>
	<circle class="st0" cx="50" cy="50" r="6.7"></circle>
	<circle class="st0" cx="65.6" cy="50" r="5.9"></circle>
	<path class="st0" d="M81.1,54.6c2.6,0,4.7-2.1,4.7-4.7c0-2.6-2.1-4.7-4.7-4.7c-2.6,0-4.7,2.1-4.7,4.7   C76.5,52.5,78.6,54.6,81.1,54.6z"></path>
	<path class="st0" d="M96.7,53.3c1.9,0,3.4-1.5,3.4-3.4c0-1.9-1.5-3.4-3.4-3.4c-1.9,0-3.4,1.5-3.4,3.4   C93.3,51.8,94.8,53.3,96.7,53.3z"></path>
	<circle class="st0" cx="3.4" cy="65.5" r="3.1"></circle>
	<circle class="st0" cx="18.9" cy="65.5" r="4.3"></circle>
	<path class="st0" d="M34.5,70.9c3,0,5.3-2.4,5.3-5.4c0-3-2.4-5.3-5.3-5.3c-3,0-5.4,2.4-5.4,5.3C29.1,68.5,31.5,70.9,34.5,70.9z"></path>
	<circle class="st0" cx="50" cy="65.5" r="5.9"></circle>
	<path class="st0" d="M65.6,71c3,0,5.4-2.4,5.4-5.4c0-3-2.4-5.4-5.4-5.4c-3,0-5.4,2.4-5.4,5.4C60.2,68.5,62.6,71,65.6,71z"></path>
	<circle class="st0" cx="81.1" cy="65.5" r="4.4"></circle>
	<path class="st0" d="M96.7,68.7c1.8,0,3.2-1.4,3.2-3.2c0-1.8-1.4-3.2-3.2-3.2c-1.8,0-3.2,1.4-3.2,3.2   C93.5,67.3,94.9,68.7,96.7,68.7z"></path>
	<path class="st0" d="M3.4,83.6c1.4,0,2.5-1.1,2.5-2.5c0-1.4-1.1-2.5-2.5-2.5c-1.4,0-2.5,1.1-2.5,2.5C0.8,82.5,1.9,83.6,3.4,83.6z"></path>
	<circle class="st0" cx="18.9" cy="81.1" r="3.5"></circle>
	<path class="st0" d="M34.5,85.4c2.4,0,4.3-1.9,4.3-4.3c0-2.4-1.9-4.3-4.3-4.3c-2.4,0-4.3,1.9-4.3,4.3   C30.2,83.5,32.1,85.4,34.5,85.4z"></path>
	<path class="st0" d="M50,85.7c2.6,0,4.7-2.1,4.7-4.7c0-2.6-2.1-4.7-4.7-4.7s-4.7,2.1-4.7,4.7C45.4,83.6,47.5,85.7,50,85.7z"></path>
	<circle class="st0" cx="65.6" cy="81.1" r="4.4"></circle>
	<circle class="st0" cx="81.1" cy="81.1" r="3.6"></circle>
	<path class="st0" d="M96.7,83.7c1.5,0,2.6-1.2,2.6-2.6c0-1.5-1.2-2.6-2.6-2.6c-1.5,0-2.6,1.2-2.6,2.6   C94.1,82.5,95.3,83.7,96.7,83.7z"></path>
	<path class="st0" d="M3.4,98.4c1,0,1.7-0.8,1.7-1.7c0-1-0.8-1.7-1.7-1.7c-1,0-1.7,0.8-1.7,1.7C1.6,97.6,2.4,98.4,3.4,98.4z"></path>
	<path class="st0" d="M18.9,99.2c1.4,0,2.5-1.1,2.5-2.5c0-1.4-1.1-2.5-2.5-2.5c-1.4,0-2.5,1.1-2.5,2.5C16.4,98,17.5,99.2,18.9,99.2z   "></path>
	<path class="st0" d="M34.5,99.8c1.7,0,3.1-1.4,3.1-3.1s-1.4-3.1-3.1-3.1c-1.7,0-3.1,1.4-3.1,3.1S32.7,99.8,34.5,99.8z"></path>
	<path class="st0" d="M50,100c1.9,0,3.4-1.5,3.4-3.4c0-1.9-1.5-3.4-3.4-3.4c-1.9,0-3.4,1.5-3.4,3.4C46.7,98.5,48.2,100,50,100z"></path>
	<path class="st0" d="M65.6,99.8c1.8,0,3.2-1.4,3.2-3.2c0-1.8-1.4-3.2-3.2-3.2c-1.8,0-3.2,1.4-3.2,3.2   C62.4,98.4,63.8,99.8,65.6,99.8z"></path>
	<path class="st0" d="M81.1,99.3c1.5,0,2.6-1.2,2.6-2.6c0-1.5-1.2-2.6-2.6-2.6c-1.5,0-2.6,1.2-2.6,2.6   C78.5,98.1,79.7,99.3,81.1,99.3z"></path>
	<path class="st0" d="M96.7,98.4c1,0,1.8-0.8,1.8-1.8c0-1-0.8-1.8-1.8-1.8c-1,0-1.8,0.8-1.8,1.8C94.9,97.6,95.7,98.4,96.7,98.4z"></path>
</g>
<g>
	<path class="st1" d="M1.9,139.2c-0.4-0.3-0.7-0.5-0.9-0.8c-0.2-0.3-0.3-0.6-0.3-0.9c0-0.4,0.1-0.7,0.3-0.9s0.5-0.4,0.8-0.4   c0.3,0,0.8,0.2,1.4,0.6c0.7,0.4,1.4,0.7,2,0.9c0.7,0.2,1.5,0.3,2.5,0.3c1.1,0,2-0.2,2.6-0.6c0.6-0.4,0.9-1,0.9-1.7   c0-0.5-0.1-0.8-0.4-1.1c-0.2-0.3-0.7-0.5-1.3-0.8c-0.6-0.2-1.5-0.5-2.7-0.7c-2.1-0.4-3.5-1-4.4-1.8c-0.9-0.8-1.3-1.8-1.3-3.1   c0-1,0.3-1.9,0.9-2.7c0.6-0.8,1.4-1.4,2.4-1.9c1-0.4,2.2-0.7,3.5-0.7c0.9,0,1.8,0.1,2.7,0.4s1.7,0.6,2.3,1.1   c0.8,0.5,1.2,1.1,1.2,1.8c0,0.4-0.1,0.7-0.3,0.9c-0.2,0.3-0.5,0.4-0.8,0.4c-0.2,0-0.4,0-0.6-0.1c-0.2-0.1-0.5-0.2-0.8-0.5   c-0.6-0.4-1.2-0.7-1.8-0.9c-0.5-0.2-1.2-0.3-2-0.3c-1,0-1.8,0.2-2.4,0.6s-0.9,1-0.9,1.7c0,0.7,0.3,1.2,0.8,1.5   c0.5,0.4,1.6,0.7,3.1,1c1.6,0.3,2.8,0.7,3.7,1.1c0.9,0.4,1.5,0.9,1.9,1.6c0.4,0.6,0.6,1.4,0.6,2.4c0,1.5-0.6,2.7-1.9,3.7   c-1.3,0.9-3,1.4-5.1,1.4C5.4,140.6,3.5,140.1,1.9,139.2z"></path>
	<path class="st1" d="M35.5,136.5c0.2,0.3,0.3,0.6,0.3,1c0,0.7-0.4,1.2-1.3,1.7c-0.8,0.5-1.7,0.8-2.7,1.1c-1,0.3-1.9,0.4-2.8,0.4   c-2.7,0-4.8-0.8-6.4-2.4c-1.6-1.6-2.3-3.7-2.3-6.5c0-1.7,0.3-3.3,1-4.7c0.7-1.4,1.7-2.4,2.9-3.1c1.2-0.7,2.7-1.1,4.2-1.1   c2.3,0,4.1,0.7,5.4,2.2s2,3.5,2,5.9c0,0.9-0.4,1.4-1.3,1.4H23.9c0.2,3.6,2,5.4,5.2,5.4c0.9,0,1.6-0.1,2.2-0.3   c0.6-0.2,1.3-0.5,2-0.9c0.1,0,0.3-0.1,0.6-0.3c0.3-0.2,0.6-0.2,0.8-0.2C35,136.1,35.3,136.2,35.5,136.5z M25.3,126.8   c-0.8,0.9-1.3,2.1-1.5,3.6h9c-0.1-1.6-0.5-2.8-1.2-3.7c-0.7-0.9-1.8-1.3-3.1-1.3C27.2,125.5,26.2,125.9,25.3,126.8z"></path>
	<path class="st1" d="M54.9,123.2c0.3-0.2,0.6-0.2,0.9-0.2c0.4,0,0.8,0.2,1.2,0.5c0.3,0.3,0.5,0.7,0.5,1.1c0,0.2,0,0.5-0.1,0.7   l-6.7,14.2c-0.2,0.4-0.4,0.7-0.8,0.9c-0.3,0.2-0.7,0.3-1.1,0.3c-0.4,0-0.7-0.1-1.1-0.3c-0.3-0.2-0.6-0.5-0.8-0.9l-6.7-14.2   c-0.1-0.2-0.1-0.4-0.1-0.7c0-0.4,0.2-0.8,0.6-1.1s0.8-0.5,1.3-0.5c0.7,0,1.2,0.3,1.5,1l5.4,12l5.4-12   C54.5,123.7,54.7,123.4,54.9,123.2z"></path>
	<path class="st1" d="M76.9,136.5c0.2,0.3,0.3,0.6,0.3,1c0,0.7-0.4,1.2-1.3,1.7c-0.8,0.5-1.7,0.8-2.7,1.1c-1,0.3-1.9,0.4-2.8,0.4   c-2.7,0-4.8-0.8-6.4-2.4c-1.6-1.6-2.3-3.7-2.3-6.5c0-1.7,0.3-3.3,1-4.7c0.7-1.4,1.7-2.4,2.9-3.1s2.7-1.1,4.2-1.1   c2.3,0,4.1,0.7,5.4,2.2s2,3.5,2,5.9c0,0.9-0.4,1.4-1.3,1.4H65.3c0.2,3.6,2,5.4,5.2,5.4c0.9,0,1.6-0.1,2.2-0.3   c0.6-0.2,1.3-0.5,2-0.9c0.1,0,0.3-0.1,0.6-0.3c0.3-0.2,0.6-0.2,0.8-0.2C76.5,136.1,76.7,136.2,76.9,136.5z M66.8,126.8   c-0.8,0.9-1.3,2.1-1.5,3.6h9c-0.1-1.6-0.5-2.8-1.2-3.7c-0.7-0.9-1.8-1.3-3.1-1.3C68.7,125.5,67.6,125.9,66.8,126.8z"></path>
	<path class="st1" d="M99.2,129.8v9.1c0,0.5-0.2,1-0.5,1.2c-0.3,0.3-0.8,0.4-1.3,0.4c-0.5,0-1-0.2-1.3-0.5c-0.3-0.3-0.5-0.7-0.5-1.2   V130c0-1.4-0.3-2.5-0.9-3.2c-0.6-0.7-1.5-1-2.7-1c-1.4,0-2.6,0.4-3.4,1.3c-0.9,0.9-1.3,2.1-1.3,3.6v8.2c0,0.5-0.2,0.9-0.5,1.2   c-0.3,0.3-0.7,0.5-1.3,0.5c-0.5,0-1-0.2-1.3-0.5c-0.3-0.3-0.5-0.7-0.5-1.2v-14.2c0-0.5,0.2-0.9,0.5-1.2s0.8-0.5,1.3-0.5   c0.5,0,0.9,0.2,1.2,0.5c0.3,0.3,0.5,0.7,0.5,1.2v1.4c0.6-1,1.3-1.8,2.3-2.3s2.1-0.8,3.4-0.8C97.2,122.9,99.2,125.2,99.2,129.8z"></path>
</g>
<g>
	<path class="st1" d="M3,161.6c-0.6-0.4-1.1-0.9-1.5-1.6c-0.3-0.7-0.5-1.4-0.5-2.3c0-0.9,0.2-1.7,0.5-2.4c0.4-0.7,0.9-1.2,1.5-1.6   c0.6-0.4,1.4-0.6,2.2-0.6c0.4,0,0.9,0.1,1.3,0.2c0.5,0.1,0.9,0.3,1.2,0.5c0.4,0.3,0.6,0.6,0.6,0.9c0,0.2-0.1,0.4-0.2,0.5   c-0.1,0.1-0.2,0.2-0.4,0.2c-0.1,0-0.2,0-0.3-0.1s-0.2-0.1-0.4-0.2c-0.3-0.2-0.6-0.3-0.8-0.4c-0.3-0.1-0.6-0.2-0.9-0.2   c-0.8,0-1.4,0.3-1.9,0.8s-0.7,1.3-0.7,2.3s0.2,1.7,0.7,2.2c0.4,0.5,1.1,0.8,1.9,0.8c0.4,0,0.7-0.1,0.9-0.2c0.3-0.1,0.5-0.2,0.8-0.4   c0.1-0.1,0.3-0.2,0.4-0.2s0.2-0.1,0.4-0.1c0.2,0,0.3,0.1,0.4,0.2c0.1,0.1,0.2,0.3,0.2,0.5c0,0.2,0,0.3-0.1,0.4   c-0.1,0.1-0.2,0.3-0.4,0.4c-0.4,0.2-0.8,0.4-1.2,0.5c-0.5,0.1-0.9,0.2-1.4,0.2C4.3,162.2,3.6,162,3,161.6z"></path>
	<path class="st1" d="M20.7,154c0,0.3-0.1,0.5-0.2,0.6c-0.1,0.1-0.4,0.2-0.7,0.2l-0.5,0.1c-0.7,0.1-1.3,0.3-1.6,0.8   c-0.4,0.4-0.5,1-0.5,1.6v4c0,0.3-0.1,0.5-0.2,0.6c-0.2,0.1-0.4,0.2-0.6,0.2c-0.3,0-0.5-0.1-0.6-0.2c-0.2-0.1-0.3-0.4-0.3-0.6v-7.2   c0-0.3,0.1-0.5,0.3-0.6s0.4-0.2,0.6-0.2c0.2,0,0.4,0.1,0.6,0.2s0.2,0.3,0.2,0.6v0.8c0.2-0.5,0.6-0.9,1-1.2c0.4-0.3,1-0.4,1.5-0.5   l0.2,0C20.4,153.2,20.7,153.5,20.7,154z"></path>
	<path class="st1" d="M34,160.1c0.1,0.1,0.2,0.3,0.2,0.5c0,0.3-0.2,0.6-0.6,0.9c-0.4,0.2-0.9,0.4-1.3,0.5c-0.5,0.1-1,0.2-1.4,0.2   c-1.4,0-2.4-0.4-3.2-1.2c-0.8-0.8-1.2-1.9-1.2-3.3c0-0.9,0.2-1.7,0.5-2.3c0.3-0.7,0.8-1.2,1.5-1.6c0.6-0.4,1.3-0.6,2.1-0.6   c1.2,0,2.1,0.4,2.7,1.1c0.7,0.7,1,1.7,1,3c0,0.5-0.2,0.7-0.6,0.7h-5.5c0.1,1.8,1,2.7,2.6,2.7c0.4,0,0.8-0.1,1.1-0.2s0.7-0.3,1-0.5   c0,0,0.1-0.1,0.3-0.1s0.3-0.1,0.4-0.1C33.8,159.9,33.9,159.9,34,160.1z M28.9,155.2c-0.4,0.4-0.7,1-0.7,1.8h4.6   c0-0.8-0.2-1.4-0.6-1.8c-0.4-0.4-0.9-0.6-1.6-0.6C29.9,154.5,29.3,154.7,28.9,155.2z"></path>
	<path class="st1" d="M47.7,154.1c0.6,0.6,0.8,1.5,0.8,2.6v4.6c0,0.3-0.1,0.5-0.2,0.6c-0.2,0.1-0.4,0.2-0.6,0.2   c-0.3,0-0.5-0.1-0.6-0.2c-0.2-0.2-0.2-0.4-0.2-0.6v-0.7c-0.2,0.5-0.6,0.9-1,1.1s-1,0.4-1.5,0.4c-0.6,0-1.1-0.1-1.5-0.3   s-0.8-0.5-1.1-0.9s-0.4-0.9-0.4-1.4c0-0.6,0.1-1.1,0.5-1.5c0.3-0.4,0.9-0.6,1.6-0.8c0.7-0.2,1.8-0.2,3.1-0.2h0.4v-0.5   c0-0.7-0.1-1.1-0.4-1.4s-0.7-0.4-1.3-0.4c-0.4,0-0.8,0.1-1.2,0.2c-0.4,0.1-0.8,0.3-1.2,0.5c-0.3,0.2-0.5,0.3-0.7,0.3   c-0.2,0-0.3-0.1-0.4-0.2c-0.1-0.1-0.2-0.3-0.2-0.5c0-0.2,0-0.3,0.1-0.5c0.1-0.1,0.3-0.3,0.5-0.4c0.4-0.2,0.9-0.4,1.4-0.5   c0.6-0.1,1.1-0.2,1.6-0.2C46.2,153.2,47.1,153.5,47.7,154.1z M46.1,160.2c0.4-0.4,0.6-1,0.6-1.7V158h-0.3c-0.9,0-1.6,0-2.1,0.1   c-0.5,0.1-0.8,0.2-1.1,0.4c-0.2,0.2-0.3,0.5-0.3,0.8c0,0.4,0.2,0.8,0.5,1c0.3,0.3,0.7,0.4,1.1,0.4   C45.2,160.8,45.7,160.6,46.1,160.2z"></path>
	<path class="st1" d="M61,161c0.1,0.1,0.2,0.3,0.2,0.5c0,0.2-0.1,0.4-0.3,0.5c-0.2,0.1-0.5,0.2-0.8,0.1l-0.5,0   c-1-0.1-1.7-0.4-2.1-0.9c-0.5-0.5-0.7-1.3-0.7-2.3v-4.1h-1.1c-0.5,0-0.8-0.2-0.8-0.7c0-0.2,0.1-0.4,0.2-0.5   c0.1-0.1,0.3-0.2,0.6-0.2h1.1v-1.8c0-0.3,0.1-0.5,0.2-0.6c0.2-0.2,0.4-0.2,0.6-0.2s0.5,0.1,0.7,0.2c0.2,0.2,0.2,0.4,0.2,0.6v1.8   h1.7c0.2,0,0.4,0.1,0.6,0.2c0.1,0.1,0.2,0.3,0.2,0.5c0,0.2-0.1,0.4-0.2,0.5c-0.1,0.1-0.3,0.2-0.6,0.2h-1.7v4.3c0,0.6,0.1,1,0.3,1.2   s0.6,0.4,1,0.4l0.5,0C60.7,160.8,60.9,160.9,61,161z"></path>
	<path class="st1" d="M67.8,151.2c-0.2-0.2-0.3-0.4-0.3-0.7c0-0.3,0.1-0.5,0.3-0.7c0.2-0.2,0.5,0.7,0.8,0.7c0.3,0,0.6-0.9,0.8-0.7   c0.2,0.2,0.3,0.4,0.3,0.7c0,0.3-0.1,0.6-0.3,0.7c-0.2,0.2-0.5,0.3-0.8,0.3C68.3,151.5,68,151.4,67.8,151.2z M68,161.9   c-0.2-0.1-0.3-0.4-0.3-0.6v-7.2c0-0.3,0.1-0.5,0.3-0.6c0.2-0.1,0.4-0.2,0.6-0.2s0.5,0.1,0.6,0.2c0.2,0.1,0.2,0.4,0.2,0.6v7.2   c0,0.3-0.1,0.5-0.2,0.6c-0.2,0.1-0.4,0.2-0.6,0.2S68.2,162.1,68,161.9z"></path>
	<path class="st1" d="M83.7,153.4c0.1-0.1,0.3-0.1,0.4-0.1c0.2,0,0.4,0.1,0.6,0.2c0.2,0.2,0.3,0.3,0.3,0.5c0,0.1,0,0.2-0.1,0.3   l-3.4,7.1c-0.1,0.2-0.2,0.3-0.4,0.4c-0.2,0.1-0.3,0.1-0.5,0.1s-0.4,0-0.5-0.1c-0.2-0.1-0.3-0.2-0.4-0.4l-3.4-7.1   c0-0.1-0.1-0.2-0.1-0.3c0-0.2,0.1-0.4,0.3-0.5c0.2-0.2,0.4-0.2,0.6-0.2c0.3,0,0.6,0.2,0.8,0.5l2.7,6.1l2.7-6   C83.5,153.6,83.6,153.5,83.7,153.4z"></path>
	<path class="st1" d="M98.8,160.1c0.1,0.1,0.2,0.3,0.2,0.5c0,0.3-0.2,0.6-0.6,0.9c-0.4,0.2-0.9,0.4-1.3,0.5c-0.5,0.1-1,0.2-1.4,0.2   c-1.4,0-2.4-0.4-3.2-1.2c-0.8-0.8-1.2-1.9-1.2-3.3c0-0.9,0.2-1.7,0.5-2.3c0.3-0.7,0.8-1.2,1.5-1.6c0.6-0.4,1.3-0.6,2.1-0.6   c1.2,0,2.1,0.4,2.7,1.1c0.7,0.7,1,1.7,1,3c0,0.5-0.2,0.7-0.6,0.7h-5.5c0.1,1.8,1,2.7,2.6,2.7c0.4,0,0.8-0.1,1.1-0.2s0.7-0.3,1-0.5   c0,0,0.1-0.1,0.3-0.1c0.2-0.1,0.3-0.1,0.4-0.1C98.5,159.9,98.7,159.9,98.8,160.1z M93.7,155.2c-0.4,0.4-0.7,1-0.7,1.8h4.6   c0-0.8-0.2-1.4-0.6-1.8c-0.4-0.4-0.9-0.6-1.6-0.6C94.6,154.5,94.1,154.7,93.7,155.2z"></path>
</g>
</svg>