<svg xmlns="http://www.w3.org/2000/svg" xmlns:xlink="http://www.w3.org/1999/xlink" id="Layer_1" x="0px" y="0px" viewBox="0 0 50 22" style="enable-background:new 0 0 50 22;" xml:space="preserve">
<style type="text/css">
	.st0{fill:#FFFFFF;}
	.st1{fill:#30A46C;}
</style>
<g>
	<path class="st0" d="M22.1,9.5c-0.4,0-0.8,0-1.2-0.1c-0.4-0.1-0.7-0.2-1.1-0.3S19.2,8.8,19,8.6l0.6-1.2c0.4,0.3,0.8,0.5,1.2,0.6   c0.4,0.1,0.9,0.2,1.3,0.2c0.5,0,0.9-0.1,1.1-0.2c0.3-0.2,0.4-0.4,0.4-0.7c0-0.2-0.1-0.3-0.2-0.4c-0.1-0.1-0.3-0.2-0.5-0.3   c-0.2-0.1-0.6-0.2-1-0.3c-0.5-0.1-0.9-0.2-1.3-0.4c-0.4-0.1-0.7-0.3-0.9-0.5c-0.2-0.2-0.4-0.4-0.5-0.6c-0.1-0.2-0.2-0.5-0.2-0.9   c0-0.5,0.1-0.9,0.4-1.2c0.3-0.4,0.6-0.7,1.1-0.9c0.5-0.2,1-0.3,1.6-0.3c0.4,0,0.7,0,1.1,0.1c0.4,0.1,0.7,0.2,1,0.3   c0.3,0.1,0.6,0.3,0.8,0.5l-0.6,1.2c-0.4-0.3-0.7-0.5-1.1-0.6c-0.4-0.1-0.8-0.2-1.2-0.2c-0.4,0-0.8,0.1-1.1,0.3   c-0.3,0.2-0.4,0.4-0.4,0.7c0,0.2,0.1,0.3,0.2,0.4c0.1,0.1,0.3,0.2,0.5,0.3s0.6,0.2,1,0.3C23,5,23.4,5.1,23.8,5.2   c0.4,0.1,0.7,0.3,0.9,0.5s0.4,0.4,0.5,0.6s0.2,0.5,0.2,0.8c0,0.5-0.1,0.9-0.4,1.3c-0.3,0.4-0.6,0.6-1.1,0.8S22.8,9.5,22.1,9.5z"></path>
	<path class="st0" d="M31.4,8.8c-0.3,0.2-0.6,0.4-1,0.5c-0.4,0.1-0.8,0.2-1.2,0.2c-0.6,0-1.2-0.1-1.6-0.4c-0.5-0.2-0.8-0.6-1-1   c-0.2-0.4-0.4-0.9-0.4-1.5c0-0.6,0.1-1.1,0.4-1.5c0.2-0.4,0.6-0.8,1-1c0.4-0.2,0.9-0.4,1.4-0.4c0.5,0,1,0.1,1.4,0.3s0.7,0.6,0.9,1   c0.2,0.4,0.3,0.9,0.3,1.5v0.2h-3.8l0-0.8h2.8L30,6.3c0-0.5-0.1-0.8-0.3-1.1S29.3,4.9,29,4.9c-0.4,0-0.7,0.1-0.9,0.4   S27.8,6,27.8,6.5c0,0.6,0.1,1.1,0.4,1.4c0.2,0.3,0.6,0.4,1.1,0.4c0.3,0,0.6,0,0.9-0.1c0.3-0.1,0.5-0.2,0.8-0.4L31.4,8.8z"></path>
	<path class="st0" d="M34,9.4l-2.4-5.6h1.7l1.6,4h-0.3l1.6-4h1.6l-2.5,5.6H34z"></path>
	<path class="st0" d="M43.3,8.8c-0.3,0.2-0.6,0.4-1,0.5c-0.4,0.1-0.8,0.2-1.2,0.2c-0.6,0-1.2-0.1-1.6-0.4c-0.5-0.2-0.8-0.6-1-1   c-0.2-0.4-0.4-0.9-0.4-1.5c0-0.6,0.1-1.1,0.4-1.5c0.2-0.4,0.6-0.8,1-1c0.4-0.2,0.9-0.4,1.4-0.4c0.5,0,1,0.1,1.4,0.3s0.7,0.6,0.9,1   c0.2,0.4,0.3,0.9,0.3,1.5v0.2h-3.8l0-0.8h2.8l-0.4,0.3c0-0.5-0.1-0.8-0.3-1.1s-0.5-0.4-0.8-0.4c-0.4,0-0.7,0.1-0.9,0.4   S39.7,6,39.7,6.5c0,0.6,0.1,1.1,0.4,1.4c0.2,0.3,0.6,0.4,1.1,0.4c0.3,0,0.6,0,0.9-0.1c0.3-0.1,0.5-0.2,0.8-0.4L43.3,8.8z"></path>
	<path class="st0" d="M44.4,9.4v-4c0-0.3,0-0.5,0-0.8c0-0.3,0-0.5-0.1-0.8h1.6L46,4.9l-0.1,0c0.2-0.4,0.5-0.7,0.8-0.9   c0.3-0.2,0.7-0.3,1.2-0.3c1.3,0,2,0.8,2,2.3v3.4h-1.7V6.1c0-0.4-0.1-0.7-0.2-0.9C47.8,5.1,47.6,5,47.3,5c-0.4,0-0.7,0.1-0.9,0.4   c-0.2,0.2-0.3,0.5-0.3,0.9v3.1H44.4z"></path>
</g>
<g>
	<path class="st0" d="M0,21.4v-8.5h3.9c0.9,0,1.6,0.2,2.1,0.6c0.5,0.4,0.8,0.9,0.8,1.6c0,0.5-0.1,0.9-0.4,1.2   c-0.3,0.3-0.6,0.6-1.1,0.7V17c0.6,0.1,1,0.4,1.3,0.7C6.9,18.1,7,18.5,7,19.1c0,0.7-0.3,1.3-0.8,1.7c-0.5,0.4-1.3,0.6-2.2,0.6H0z    M1.8,16.4h1.8c0.5,0,0.8-0.1,1.1-0.3S5,15.7,5,15.4c0-0.4-0.1-0.6-0.3-0.8s-0.6-0.2-1.1-0.2H1.8V16.4z M1.8,20h2   c0.5,0,0.9-0.1,1.1-0.3s0.3-0.4,0.3-0.8c0-0.4-0.1-0.7-0.3-0.8s-0.6-0.3-1.1-0.3h-2V20z"></path>
	<path class="st0" d="M10.5,21.5c-0.8,0-1.3-0.2-1.7-0.6c-0.4-0.4-0.6-1.1-0.6-1.9v-3.6H10V19c0,0.4,0.1,0.7,0.2,0.8   c0.2,0.2,0.4,0.3,0.7,0.3c0.4,0,0.7-0.1,0.9-0.4c0.2-0.3,0.3-0.6,0.3-1v-3.4H14v6.1h-1.8v-1.2l0.2,0c-0.2,0.4-0.4,0.7-0.8,1   C11.3,21.4,10.9,21.5,10.5,21.5z"></path>
	<path class="st0" d="M17.8,21.5c-1.2,0-2.1-0.2-2.7-0.7l0.5-1.3c0.3,0.2,0.7,0.4,1.1,0.5s0.8,0.2,1.2,0.2c0.3,0,0.6,0,0.7-0.2   c0.2-0.1,0.3-0.2,0.3-0.4c0-0.2-0.1-0.3-0.2-0.4s-0.3-0.2-0.6-0.2l-1-0.2c-0.6-0.1-1-0.3-1.3-0.6c-0.3-0.3-0.4-0.7-0.4-1.1   c0-0.4,0.1-0.7,0.3-1s0.5-0.5,0.9-0.7s0.8-0.3,1.4-0.3c0.4,0,0.9,0.1,1.3,0.2s0.8,0.3,1.1,0.6l-0.5,1.2c-0.3-0.2-0.6-0.4-1-0.5   c-0.3-0.1-0.6-0.2-0.9-0.2c-0.3,0-0.5,0.1-0.7,0.2S17,16.9,17,17.1c0,0.1,0,0.2,0.1,0.3s0.3,0.2,0.5,0.2l1,0.2   c0.6,0.1,1.1,0.4,1.4,0.6c0.3,0.3,0.4,0.7,0.4,1.2c0,0.6-0.2,1-0.7,1.4C19.3,21.4,18.7,21.5,17.8,21.5z"></path>
	<path class="st0" d="M21.5,12.5h2v1.7h-2V12.5z M21.6,21.4v-6.1h1.8v6.1H21.6z"></path>
	<path class="st0" d="M24.8,21.4v-4.3c0-0.3,0-0.6,0-0.9c0-0.3,0-0.6-0.1-0.9h1.7l0.1,1.2l-0.1,0c0.2-0.4,0.5-0.8,0.9-1   s0.8-0.3,1.3-0.3c1.4,0,2.1,0.9,2.1,2.6v3.7h-1.8v-3.6c0-0.4-0.1-0.7-0.2-0.9c-0.2-0.2-0.4-0.3-0.7-0.3c-0.4,0-0.7,0.1-1,0.4   c-0.2,0.3-0.4,0.6-0.4,1v3.4H24.8z"></path>
	<path class="st0" d="M37.5,20.8c-0.3,0.2-0.7,0.4-1.1,0.5s-0.9,0.2-1.3,0.2c-0.7,0-1.3-0.1-1.8-0.4c-0.5-0.3-0.9-0.6-1.1-1.1   c-0.3-0.5-0.4-1-0.4-1.7c0-0.6,0.1-1.2,0.4-1.7s0.6-0.9,1.1-1.1c0.4-0.3,1-0.4,1.6-0.4c0.6,0,1.1,0.1,1.5,0.4s0.7,0.6,1,1.1   s0.3,1,0.3,1.6v0.3h-4.2l0-0.9h3.1L36.1,18c0-0.5-0.1-0.9-0.3-1.2c-0.2-0.3-0.5-0.4-0.9-0.4c-0.4,0-0.7,0.1-1,0.4   c-0.2,0.3-0.3,0.7-0.3,1.3c0,0.7,0.1,1.2,0.4,1.5s0.7,0.5,1.2,0.5c0.3,0,0.6-0.1,0.9-0.2c0.3-0.1,0.6-0.3,0.9-0.4L37.5,20.8z"></path>
	<path class="st0" d="M41.1,21.5c-1.2,0-2.1-0.2-2.7-0.7l0.5-1.3c0.3,0.2,0.7,0.4,1.1,0.5s0.8,0.2,1.2,0.2c0.3,0,0.6,0,0.7-0.2   c0.2-0.1,0.3-0.2,0.3-0.4c0-0.2-0.1-0.3-0.2-0.4s-0.3-0.2-0.6-0.2l-1-0.2c-0.6-0.1-1-0.3-1.3-0.6c-0.3-0.3-0.4-0.7-0.4-1.1   c0-0.4,0.1-0.7,0.3-1s0.5-0.5,0.9-0.7s0.8-0.3,1.4-0.3c0.4,0,0.9,0.1,1.3,0.2s0.8,0.3,1.1,0.6l-0.5,1.2c-0.3-0.2-0.6-0.4-1-0.5   c-0.3-0.1-0.6-0.2-0.9-0.2c-0.3,0-0.5,0.1-0.7,0.2s-0.3,0.2-0.3,0.4c0,0.1,0,0.2,0.1,0.3s0.3,0.2,0.5,0.2l1,0.2   c0.6,0.1,1.1,0.4,1.4,0.6c0.3,0.3,0.4,0.7,0.4,1.2c0,0.6-0.2,1-0.7,1.4C42.6,21.4,41.9,21.5,41.1,21.5z"></path>
	<path class="st0" d="M47.2,21.5c-1.2,0-2.1-0.2-2.7-0.7l0.5-1.3c0.3,0.2,0.7,0.4,1.1,0.5s0.8,0.2,1.2,0.2c0.3,0,0.6,0,0.7-0.2   c0.2-0.1,0.3-0.2,0.3-0.4c0-0.2-0.1-0.3-0.2-0.4s-0.3-0.2-0.6-0.2l-1-0.2c-0.6-0.1-1-0.3-1.3-0.6c-0.3-0.3-0.4-0.7-0.4-1.1   c0-0.4,0.1-0.7,0.3-1s0.5-0.5,0.9-0.7s0.8-0.3,1.4-0.3c0.4,0,0.9,0.1,1.3,0.2s0.8,0.3,1.1,0.6l-0.5,1.2c-0.3-0.2-0.6-0.4-1-0.5   c-0.3-0.1-0.6-0.2-0.9-0.2c-0.3,0-0.5,0.1-0.7,0.2s-0.3,0.2-0.3,0.4c0,0.1,0,0.2,0.1,0.3s0.3,0.2,0.5,0.2l1,0.2   c0.6,0.1,1.1,0.4,1.4,0.6c0.3,0.3,0.4,0.7,0.4,1.2c0,0.6-0.2,1-0.7,1.4C48.6,21.4,48,21.5,47.2,21.5z"></path>
</g>
<rect y="7.8" class="st1" width="14" height="1.5"></rect>
<rect y="4.2" class="st1" width="14" height="1.5"></rect>
</svg>