<svg xmlns="http://www.w3.org/2000/svg" xmlns:xlink="http://www.w3.org/1999/xlink" id="Layer_1" x="0px" y="0px" viewBox="0 0 300 100" style="enable-background:new 0 0 300 100;" xml:space="preserve">
<style type="text/css">
	.st0{fill:#A9AEB3;}
</style>
<g>
	<path d="M134.9,43.1c-0.7-0.4-1.2-0.9-1.5-1.4s-0.4-1-0.4-1.6s0.2-1.2,0.5-1.6c0.3-0.4,0.8-0.7,1.3-0.7s1.3,0.3,2.4,1   c1.2,0.6,2.3,1.2,3.4,1.6c1.1,0.4,2.5,0.6,4.1,0.6c1.9,0,3.3-0.3,4.3-1s1.6-1.7,1.6-2.9c0-0.8-0.2-1.5-0.6-1.9   c-0.4-0.5-1.1-0.9-2.1-1.3c-1-0.4-2.5-0.8-4.5-1.2c-3.4-0.8-5.8-1.8-7.3-3.1c-1.5-1.3-2.2-3.1-2.2-5.4c0-1.7,0.5-3.3,1.4-4.7   c1-1.4,2.3-2.5,4-3.2c1.7-0.8,3.6-1.2,5.8-1.2c1.5,0,3.1,0.2,4.5,0.6c1.5,0.4,2.8,1,3.9,1.8c1.3,0.9,1.9,1.9,1.9,3.1   c0,0.6-0.2,1.2-0.5,1.6c-0.4,0.4-0.8,0.7-1.3,0.7c-0.3,0-0.7-0.1-1-0.2c-0.3-0.2-0.8-0.4-1.4-0.8c-1-0.6-2-1.2-2.9-1.5   c-0.9-0.4-2-0.5-3.4-0.5c-1.6,0-2.9,0.4-3.9,1.1s-1.5,1.7-1.5,3c0,1.1,0.5,2,1.4,2.6s2.6,1.2,5.1,1.8c2.6,0.6,4.6,1.2,6.1,1.9   c1.5,0.7,2.5,1.6,3.2,2.7c0.6,1.1,1,2.4,1,4.1c0,2.6-1.1,4.7-3.2,6.3c-2.1,1.6-4.9,2.4-8.4,2.4C140.6,45.7,137.4,44.8,134.9,43.1z"></path>
	<path d="M190.5,38.5c0.3,0.4,0.5,1,0.5,1.7c0,1.2-0.7,2.2-2.1,3c-1.4,0.8-2.8,1.4-4.4,1.9c-1.6,0.4-3.1,0.7-4.6,0.7   c-4.5,0-8-1.4-10.6-4.1c-2.6-2.7-3.9-6.5-3.9-11.2c0-3,0.6-5.7,1.7-8.1c1.1-2.3,2.7-4.2,4.8-5.5s4.4-1.9,7-1.9c3.8,0,6.8,1.3,9,3.8   s3.3,6,3.3,10.3c0,1.6-0.7,2.4-2.1,2.4h-17.9c0.4,6.3,3.3,9.4,8.6,9.4c1.4,0,2.7-0.2,3.7-0.6c1-0.4,2.1-0.9,3.3-1.6   c0.1-0.1,0.4-0.3,1-0.5c0.5-0.3,1-0.4,1.3-0.4C189.7,37.8,190.1,38,190.5,38.5z M173.7,21.7c-1.4,1.5-2.2,3.6-2.4,6.3h14.9   c-0.1-2.7-0.8-4.9-2-6.3c-1.2-1.5-2.9-2.2-5.1-2.2C176.8,19.4,175,20.2,173.7,21.7z"></path>
	<path d="M222.7,15.5c0.4-0.3,0.9-0.4,1.4-0.4c0.7,0,1.4,0.3,1.9,0.8c0.6,0.5,0.8,1.2,0.8,1.9c0,0.4-0.1,0.8-0.2,1.2l-11.1,24.6   c-0.3,0.6-0.7,1.1-1.2,1.5c-0.6,0.3-1.1,0.5-1.8,0.5c-0.6,0-1.2-0.2-1.8-0.5s-1-0.8-1.2-1.5L198.4,19c-0.2-0.3-0.2-0.7-0.2-1.2   c0-0.7,0.3-1.4,0.9-1.9s1.3-0.8,2.1-0.8c1.1,0,1.9,0.6,2.5,1.7l9,20.9l8.9-20.8C221.9,16.3,222.3,15.8,222.7,15.5z"></path>
	<path d="M259.1,38.5c0.3,0.4,0.5,1,0.5,1.7c0,1.2-0.7,2.2-2.1,3s-2.8,1.4-4.4,1.9c-1.6,0.4-3.1,0.7-4.6,0.7c-4.5,0-8-1.4-10.6-4.1   c-2.6-2.7-3.9-6.5-3.9-11.2c0-3,0.6-5.7,1.7-8.1c1.1-2.3,2.7-4.2,4.8-5.5s4.4-1.9,7-1.9c3.8,0,6.8,1.3,9,3.8   c2.2,2.5,3.3,6,3.3,10.3c0,1.6-0.7,2.4-2.1,2.4h-17.9c0.4,6.3,3.3,9.4,8.6,9.4c1.4,0,2.7-0.2,3.7-0.6c1-0.4,2.1-0.9,3.3-1.6   c0.1-0.1,0.4-0.3,1-0.5c0.5-0.3,1-0.4,1.3-0.4C258.3,37.8,258.8,38,259.1,38.5z M242.3,21.7c-1.4,1.5-2.2,3.6-2.4,6.3h14.9   c-0.1-2.7-0.8-4.9-2-6.3c-1.2-1.5-2.9-2.2-5.1-2.2C245.4,19.4,243.7,20.2,242.3,21.7z"></path>
	<path d="M296,26.9v15.8c0,0.9-0.3,1.6-0.8,2.2c-0.5,0.5-1.2,0.8-2.2,0.8c-0.9,0-1.6-0.3-2.1-0.8s-0.8-1.2-0.8-2.1V27.2   c0-2.5-0.5-4.3-1.4-5.5s-2.4-1.8-4.4-1.8c-2.4,0-4.2,0.8-5.7,2.3c-1.4,1.5-2.1,3.6-2.1,6.2v14.2c0,0.9-0.3,1.6-0.8,2.1   s-1.2,0.8-2.1,0.8s-1.6-0.3-2.1-0.8s-0.8-1.2-0.8-2.1V18c0-0.8,0.3-1.5,0.8-2.1c0.6-0.5,1.3-0.8,2.1-0.8c0.8,0,1.5,0.3,2,0.8   s0.8,1.2,0.8,2.1v2.5c0.9-1.8,2.2-3.1,3.9-4.1c1.7-0.9,3.5-1.4,5.6-1.4C292.6,14.9,296,18.9,296,26.9z"></path>
</g>
<g>
	<path d="M136.6,82.1c-1-0.6-1.9-1.5-2.4-2.7c-0.6-1.2-0.9-2.5-0.9-4s0.3-2.9,0.9-4.1c0.6-1.2,1.4-2.1,2.5-2.8c1.1-0.7,2.3-1,3.7-1   c0.7,0,1.5,0.1,2.2,0.3c0.7,0.2,1.4,0.5,2,0.9s0.9,1,0.9,1.6c0,0.3-0.1,0.6-0.3,0.9c-0.2,0.2-0.4,0.4-0.7,0.4c-0.2,0-0.4,0-0.5-0.1   c-0.2-0.1-0.4-0.2-0.7-0.4c-0.5-0.3-0.9-0.6-1.4-0.7c-0.4-0.2-0.9-0.3-1.5-0.3c-1.3,0-2.4,0.5-3.1,1.4s-1.1,2.2-1.1,3.9   s0.4,3,1.1,3.9c0.7,0.9,1.7,1.4,3.1,1.4c0.6,0,1.1-0.1,1.5-0.3c0.4-0.2,0.9-0.4,1.4-0.7c0.2-0.1,0.4-0.3,0.6-0.4   c0.2-0.1,0.4-0.2,0.6-0.2c0.3,0,0.5,0.1,0.7,0.4c0.2,0.2,0.3,0.5,0.3,0.9c0,0.3-0.1,0.5-0.2,0.8c-0.1,0.2-0.4,0.5-0.7,0.7   c-0.6,0.4-1.3,0.7-2,0.9c-0.8,0.2-1.6,0.3-2.4,0.3C138.9,83,137.7,82.7,136.6,82.1z"></path>
	<path d="M165.9,68.8c0,0.4-0.1,0.8-0.3,1s-0.6,0.4-1.1,0.4l-0.9,0.1c-1.2,0.1-2.1,0.6-2.7,1.3c-0.6,0.8-0.9,1.7-0.9,2.8v7   c0,0.5-0.1,0.9-0.4,1.1c-0.3,0.2-0.6,0.4-1.1,0.4c-0.4,0-0.8-0.1-1.1-0.4c-0.3-0.2-0.4-0.6-0.4-1.1V69c0-0.5,0.1-0.8,0.4-1.1   c0.3-0.3,0.6-0.4,1.1-0.4c0.4,0,0.7,0.1,1,0.4s0.4,0.6,0.4,1.1v1.5c0.4-0.9,1-1.6,1.7-2c0.7-0.5,1.6-0.7,2.5-0.8h0.4   C165.4,67.5,165.9,67.9,165.9,68.8z"></path>
	<path d="M188,79.4c0.2,0.2,0.3,0.5,0.3,0.9c0,0.6-0.4,1.1-1.1,1.5c-0.7,0.4-1.4,0.7-2.2,0.9c-0.8,0.2-1.6,0.3-2.3,0.3   c-2.3,0-4-0.7-5.3-2.1s-2-3.3-2-5.6c0-1.5,0.3-2.9,0.9-4.1c0.6-1.2,1.4-2.1,2.4-2.8c1-0.7,2.2-1,3.5-1c1.9,0,3.4,0.6,4.5,1.9   s1.7,3,1.7,5.2c0,0.8-0.4,1.2-1.1,1.2h-9c0.2,3.2,1.6,4.7,4.4,4.7c0.7,0,1.3-0.1,1.9-0.3c0.5-0.2,1.1-0.5,1.7-0.8   c0.1,0,0.2-0.1,0.5-0.3c0.3-0.1,0.5-0.2,0.7-0.2C187.6,79,187.8,79.1,188,79.4z M179.5,70.9c-0.7,0.8-1.1,1.8-1.2,3.2h7.5   c-0.1-1.4-0.4-2.4-1-3.2c-0.6-0.7-1.5-1.1-2.6-1.1C181.1,69.8,180.2,70.1,179.5,70.9z"></path>
	<path d="M210.6,69c0.9,1,1.4,2.5,1.4,4.6v7.9c0,0.5-0.1,0.8-0.4,1.1c-0.3,0.3-0.6,0.4-1.1,0.4c-0.4,0-0.8-0.1-1-0.4   c-0.3-0.3-0.4-0.6-0.4-1.1v-1.1c-0.4,0.9-0.9,1.5-1.7,2S205.9,83,205,83s-1.8-0.2-2.6-0.6s-1.4-0.9-1.8-1.6   c-0.4-0.7-0.7-1.5-0.7-2.4c0-1.1,0.2-2,0.8-2.6c0.5-0.6,1.4-1.1,2.7-1.3c1.2-0.3,2.9-0.4,5.1-0.4h0.7v-0.9c0-1.1-0.2-2-0.7-2.5   c-0.4-0.5-1.2-0.8-2.2-0.8c-0.7,0-1.3,0.1-1.9,0.3c-0.6,0.2-1.3,0.4-2,0.8c-0.5,0.3-0.9,0.5-1.1,0.5c-0.3,0-0.5-0.1-0.7-0.3   c-0.2-0.2-0.3-0.5-0.3-0.9c0-0.3,0.1-0.6,0.2-0.8c0.2-0.2,0.4-0.5,0.8-0.7c0.7-0.4,1.5-0.7,2.4-0.9c0.9-0.2,1.8-0.4,2.7-0.4   C208.3,67.5,209.7,68,210.6,69z M208.1,79.6c0.7-0.8,1-1.7,1-3v-0.8h-0.5c-1.5,0-2.7,0.1-3.5,0.2s-1.4,0.4-1.8,0.7   c-0.4,0.3-0.5,0.8-0.5,1.5s0.3,1.3,0.8,1.8s1.1,0.7,1.9,0.7C206.6,80.7,207.4,80.3,208.1,79.6z"></path>
	<path d="M232.7,80.9c0.2,0.2,0.3,0.5,0.3,0.8c0,0.4-0.2,0.7-0.5,0.9c-0.3,0.2-0.7,0.3-1.3,0.3l-0.8-0.1c-1.6-0.1-2.8-0.6-3.5-1.5   c-0.8-0.9-1.2-2.2-1.2-3.9v-7.2H224c-0.9,0-1.3-0.4-1.3-1.2c0-0.4,0.1-0.7,0.3-0.9c0.2-0.2,0.5-0.3,0.9-0.3h1.8v-3.2   c0-0.5,0.1-0.8,0.4-1.1c0.3-0.3,0.6-0.4,1.1-0.4c0.4,0,0.8,0.1,1.1,0.4c0.3,0.3,0.4,0.6,0.4,1.1v3.2h2.9c0.4,0,0.7,0.1,0.9,0.3   c0.2,0.2,0.3,0.5,0.3,0.9s-0.1,0.7-0.3,0.9c-0.2,0.2-0.5,0.3-0.9,0.3h-2.9v7.4c0,1,0.2,1.7,0.6,2.1s1,0.7,1.7,0.8l0.8,0.1   C232.2,80.6,232.5,80.7,232.7,80.9z"></path>
	<path d="M244,64.1c-0.3-0.3-0.5-0.8-0.5-1.3s0.2-1,0.5-1.3s0.8,1.3,1.3,1.3s1-1.6,1.3-1.3s0.5,0.7,0.5,1.3c0,0.5-0.2,1-0.5,1.3   c-0.3,0.3-0.8,0.5-1.3,0.5S244.3,64.4,244,64.1z M244.3,82.6c-0.3-0.2-0.4-0.6-0.4-1.1V69.1c0-0.5,0.1-0.9,0.4-1.1   c0.3-0.3,0.6-0.4,1.1-0.4c0.4,0,0.8,0.1,1.1,0.4s0.4,0.6,0.4,1.1v12.4c0,0.5-0.1,0.9-0.4,1.1c-0.3,0.2-0.6,0.4-1.1,0.4   C244.9,82.9,244.6,82.8,244.3,82.6z"></path>
	<path d="M270.4,67.8c0.2-0.1,0.5-0.2,0.7-0.2c0.4,0,0.7,0.1,1,0.4s0.4,0.6,0.4,0.9c0,0.2,0,0.4-0.1,0.6l-5.6,12.4   c-0.1,0.3-0.3,0.6-0.6,0.8c-0.3,0.2-0.6,0.3-0.9,0.3s-0.6-0.1-0.9-0.3c-0.3-0.2-0.5-0.4-0.6-0.8l-5.6-12.4   c-0.1-0.2-0.1-0.4-0.1-0.6c0-0.4,0.2-0.7,0.5-0.9c0.3-0.3,0.7-0.4,1.1-0.4c0.6,0,1,0.3,1.3,0.9l4.5,10.5l4.5-10.5   C270,68.2,270.1,67.9,270.4,67.8z"></path>
	<path d="M295.3,79.4c0.2,0.2,0.3,0.5,0.3,0.9c0,0.6-0.4,1.1-1.1,1.5s-1.4,0.7-2.2,0.9c-0.8,0.2-1.6,0.3-2.3,0.3   c-2.3,0-4-0.7-5.3-2.1s-2-3.3-2-5.6c0-1.5,0.3-2.9,0.9-4.1s1.4-2.1,2.4-2.8c1-0.7,2.2-1,3.5-1c1.9,0,3.4,0.6,4.5,1.9s1.7,3,1.7,5.2   c0,0.8-0.4,1.2-1.1,1.2h-9c0.2,3.2,1.6,4.7,4.4,4.7c0.7,0,1.3-0.1,1.9-0.3c0.5-0.2,1.1-0.5,1.7-0.8c0.1,0,0.2-0.1,0.5-0.3   c0.3-0.1,0.5-0.2,0.7-0.2C294.9,79,295.1,79.1,295.3,79.4z M286.8,70.9c-0.7,0.8-1.1,1.8-1.2,3.2h7.5c-0.1-1.4-0.4-2.4-1-3.2   c-0.6-0.7-1.5-1.1-2.6-1.1C288.4,69.8,287.5,70.1,286.8,70.9z"></path>
</g>
<path class="st0" d="M99.9,52.3L99.9,52.3l0-0.2c0,0,0,0,0,0c0-0.7,0-1.4,0-2.1c0-12.6-4.7-24.7-13.3-33.9  C78.2,6.8,66.7,1.2,54.2,0.2c-2.8-0.2-5.6-0.2-8.4,0c-12.5,1-24,6.7-32.5,15.9C4.7,25.3,0,37.4,0,50c0,0.7,0,1.5,0,2.1  c1.1,25.7,21.6,46.3,47.1,47.8c0.6,0,1.1,0.1,1.7,0.1c0,0,0,0,0.1,0h0c0.2,0,0.4,0,0.5,0c0.2,0,0.4,0,0.6,0c0.2,0,0.4,0,0.6,0  c0.2,0,0.4,0,0.5,0C77.3,99.4,98.8,78.5,99.9,52.3z M3.7,52c0-0.6,0-1.3,0-2c0-11.7,4.4-22.9,12.3-31.5C23.8,10,34.6,4.8,46.1,3.8  c1.3-0.1,2.6-0.2,3.9-0.2c1.3,0,2.6,0.1,3.9,0.2c11.5,1,22.3,6.2,30.2,14.7C92,27.1,96.4,38.3,96.4,50c0,0.6,0,1.2,0,1.8  c0,0.1,0,0.1,0,0.2c0,0.1-0.1,0.3-0.1,0.4c0,0.2-0.1,0.3-0.1,0.5c0,0.2-0.1,0.4-0.2,0.6c-0.1,0.2-0.1,0.4-0.2,0.6  c-0.1,0.2-0.1,0.4-0.2,0.6c-0.1,0.2-0.1,0.4-0.2,0.6c0,0,0,0,0,0c-0.1,0.2-0.1,0.4-0.2,0.6c-0.1,0.2-0.1,0.4-0.2,0.6  c-0.1,0.2-0.1,0.4-0.2,0.6c-0.1,0.2-0.1,0.4-0.2,0.6c-0.3,0.7-0.6,1.4-0.9,2.1c-0.1,0.2-0.2,0.4-0.2,0.5c-0.1,0.2-0.2,0.4-0.3,0.6  c-0.1,0.2-0.2,0.4-0.3,0.6c0-0.3,0.1-0.6,0.1-0.9c0-0.2,0-0.5,0.1-0.7l0-0.2c0-0.3,0-0.5,0-0.8c0-0.2,0-0.4,0-0.7c0-0.1,0-0.2,0-0.3  c0-0.3,0-0.5,0-0.8c0-10.2-3.6-20-10.1-27.8c-0.1-0.1-0.2-0.2-0.2-0.3C74.6,19.2,62.6,13.7,50,13.7c-0.3,0-0.6,0-1,0  c-0.1,0-0.1,0-0.2,0c-0.1,0-0.3,0-0.4,0c-0.4,0-0.9,0-1.3,0.1c-0.1,0-0.3,0-0.4,0c-0.1,0-0.3,0-0.4,0c-0.2,0-0.5,0-0.7,0.1  c-0.2,0-0.4,0-0.5,0.1c-0.2,0-0.4,0-0.6,0.1c0,0-0.1,0-0.1,0c-0.2,0-0.4,0.1-0.6,0.1c-0.2,0-0.4,0.1-0.6,0.1  c-0.4,0.1-0.8,0.1-1.2,0.2c-0.2,0-0.4,0.1-0.6,0.1c0,0,0,0-0.1,0c-1,0.2-2,0.4-2.9,0.7c-0.2,0.1-0.4,0.1-0.6,0.2  c-0.2,0.1-0.4,0.1-0.6,0.2c-0.6,0.2-1.2,0.4-1.7,0.6l-0.6,0.2c-0.1,0-0.2,0.1-0.3,0.1c-0.1,0.1-0.3,0.1-0.4,0.2  c-0.3,0.1-0.6,0.3-0.9,0.4c-0.2,0.1-0.3,0.1-0.5,0.2c-0.6,0.3-1.2,0.5-1.8,0.8c-0.5,0.3-1,0.5-1.5,0.8c-0.2,0.1-0.3,0.2-0.5,0.3  c-0.2,0.1-0.4,0.2-0.5,0.3c-0.1,0.1-0.3,0.2-0.4,0.3c-0.2,0.1-0.3,0.2-0.5,0.3c-0.3,0.2-0.7,0.4-1,0.6c-0.2,0.1-0.3,0.2-0.5,0.3  c-0.1,0.1-0.3,0.2-0.4,0.3c0,0-0.1,0-0.1,0.1c0,0-0.1,0.1-0.1,0.1c-0.1,0.1-0.2,0.1-0.3,0.2c0,0,0,0-0.1,0c0,0,0,0,0,0  c-0.1,0.1-0.3,0.2-0.4,0.3c-0.2,0.1-0.3,0.2-0.5,0.3c-0.3,0.2-0.6,0.5-0.9,0.7c-0.1,0.1-0.3,0.2-0.4,0.3v0c0,0,0,0-0.1,0  c-0.3,0.2-0.6,0.5-0.9,0.8c-0.3,0.3-0.6,0.5-0.9,0.8c-0.1,0.1-0.3,0.3-0.4,0.4c-0.3,0.3-0.6,0.5-0.8,0.8c-0.2,0.2-0.4,0.4-0.6,0.6  c-0.2,0.2-0.3,0.3-0.5,0.5c-0.1,0.1-0.2,0.2-0.3,0.4c-0.1,0.1-0.2,0.2-0.3,0.3c-0.2,0.3-0.5,0.5-0.7,0.8v0L17,29.1l0,0  C10.5,36.9,6.9,46.7,6.9,56.9c0,4.7,0.7,9.3,2.2,13.7c0.1,0.3,0.2,0.5,0.3,0.8c0.1,0.3,0.2,0.5,0.3,0.8c0.2,0.5,0.4,1,0.6,1.6  c0.1,0.2,0.2,0.4,0.3,0.6C6.5,67.8,4,60.2,3.7,52z M87.3,69.4c-0.2,0.2-0.3,0.3-0.5,0.5c-0.1,0.1-0.2,0.2-0.3,0.3  c-0.1,0.1-0.2,0.3-0.4,0.4c-0.1,0.1-0.2,0.3-0.4,0.4c-0.1,0.1-0.3,0.3-0.4,0.4c-0.1,0.1-0.2,0.2-0.4,0.4c-0.1,0.1-0.3,0.3-0.4,0.4  c-0.1,0.1-0.3,0.2-0.4,0.4c-0.1,0.1-0.3,0.2-0.4,0.4c-0.1,0.1-0.3,0.2-0.4,0.3c-0.1,0.1-0.2,0.2-0.4,0.3c-0.1,0.1-0.3,0.2-0.5,0.4  c-0.1,0.1-0.3,0.2-0.4,0.3c-0.3,0.2-0.5,0.4-0.8,0.6c0,0,0,0,0,0c-0.1,0.1-0.3,0.2-0.4,0.3c-0.2,0.1-0.3,0.2-0.5,0.3  c-0.1,0.1-0.3,0.2-0.4,0.3c-0.1,0.1-0.3,0.2-0.4,0.3c-0.1,0.1-0.3,0.2-0.4,0.3c-0.1,0.1-0.3,0.2-0.4,0.3c-0.1,0.1-0.3,0.2-0.4,0.3  c-0.2,0.1-0.3,0.2-0.5,0.3c-0.2,0.1-0.3,0.2-0.5,0.3c-0.2,0.1-0.3,0.2-0.5,0.3c-0.2,0.1-0.3,0.2-0.5,0.3c-0.2,0.1-0.3,0.2-0.5,0.2  c-0.2,0.1-0.3,0.2-0.5,0.2c-0.2,0.1-0.3,0.2-0.5,0.2c-0.2,0.1-0.3,0.2-0.5,0.2c-0.2,0.1-0.3,0.1-0.5,0.2c-0.3,0.1-0.6,0.3-1,0.4  c-0.2,0.1-0.3,0.1-0.5,0.2c-0.2,0.1-0.3,0.1-0.5,0.2c-0.3,0.1-0.7,0.3-1,0.4c-0.2,0.1-0.3,0.1-0.5,0.2c-0.2,0.1-0.4,0.1-0.6,0.2  c-0.1,0-0.2,0.1-0.4,0.1c-0.2,0.1-0.3,0.1-0.5,0.2c-0.2,0.1-0.3,0.1-0.5,0.2c-0.5,0.1-1,0.3-1.5,0.4c-0.2,0-0.3,0.1-0.5,0.1  c-0.2,0-0.3,0.1-0.5,0.1c-0.3,0.1-0.6,0.1-1,0.2c0,0-0.1,0-0.1,0C65,82,64.8,82,64.7,82c-0.2,0-0.3,0.1-0.5,0.1c-0.1,0-0.1,0-0.2,0  c-0.2,0-0.4,0.1-0.6,0.1c-0.1,0-0.2,0-0.2,0c-1.1,0.2-2.3,0.3-3.4,0.3C75,75.8,85.4,60.5,85.4,43.1c0-1.4-0.1-2.9-0.2-4.3  c2.8,5.5,4.4,11.7,4.4,18c0,0.5,0,1,0,1.6c0,0.1,0,0.3,0,0.4c0,0.1,0,0.3,0,0.4c0,0.3,0,0.5-0.1,0.8c0,0.2,0,0.5-0.1,0.7  c0,0.2,0,0.3-0.1,0.5l0,0.4c0,0.2-0.1,0.4-0.1,0.7c0,0.2,0,0.4-0.1,0.5c0,0.2-0.1,0.4-0.1,0.6c0,0.2-0.1,0.4-0.1,0.5  c0,0,0,0.1,0,0.1c0,0.2-0.1,0.5-0.1,0.7c0,0.1,0,0.1,0,0.1c0,0.2-0.1,0.4-0.1,0.6c-0.1,0.2-0.1,0.5-0.2,0.7c0,0.2-0.1,0.3-0.1,0.5  c0,0.1-0.1,0.2-0.1,0.3c0,0.1-0.1,0.3-0.1,0.4c0,0.1-0.1,0.2-0.1,0.3c-0.1,0.2-0.1,0.4-0.2,0.6c0,0,0,0,0,0  c-0.1,0.2-0.2,0.5-0.2,0.7C87.5,69.2,87.4,69.3,87.3,69.4z M49.7,81.8c-0.1,0-0.2,0-0.3-0.1c-0.3-0.1-0.6-0.1-0.9-0.2  s-0.6-0.1-0.9-0.2c-0.1,0-0.3-0.1-0.4-0.1c-0.1,0-0.3-0.1-0.4-0.1c-0.1,0-0.3-0.1-0.4-0.1c-0.1,0-0.3-0.1-0.4-0.1c0,0,0,0-0.1,0  c0,0-0.1,0-0.1,0c-0.2-0.1-0.5-0.1-0.7-0.2c-0.3-0.1-0.5-0.2-0.8-0.3c0,0,0,0-0.1,0c-0.2-0.1-0.4-0.2-0.7-0.2  c-0.1,0-0.1-0.1-0.2-0.1c-0.2-0.1-0.3-0.1-0.5-0.2c-0.1,0-0.2-0.1-0.3-0.1c-0.1-0.1-0.3-0.1-0.4-0.2c-0.1-0.1-0.3-0.1-0.4-0.2  c-0.2-0.1-0.4-0.2-0.6-0.3c0,0,0,0,0,0c-0.2-0.1-0.4-0.2-0.6-0.3c-0.1-0.1-0.2-0.1-0.4-0.2c-0.2-0.1-0.4-0.2-0.7-0.3  c-0.2-0.1-0.4-0.2-0.6-0.3c0,0,0,0-0.1,0c0,0,0,0,0,0c0,0,0,0,0,0c-0.2-0.1-0.4-0.2-0.6-0.4c0,0-0.1,0-0.1-0.1  c-0.2-0.1-0.3-0.2-0.5-0.3c-0.1-0.1-0.2-0.1-0.3-0.2c-0.1-0.1-0.3-0.2-0.4-0.3c-0.1-0.1-0.2-0.1-0.3-0.2c-0.1-0.1-0.3-0.2-0.4-0.3  c-0.1-0.1-0.2-0.1-0.3-0.2c-0.2-0.1-0.4-0.3-0.6-0.4c-0.2-0.1-0.3-0.2-0.5-0.3c0,0,0,0-0.1-0.1c-0.1-0.1-0.1-0.1-0.2-0.2  c-0.1-0.1-0.2-0.1-0.3-0.2c-0.1-0.1-0.2-0.2-0.3-0.2c-0.2-0.1-0.4-0.3-0.5-0.4c0,0,0,0,0,0c-0.3-0.2-0.6-0.4-0.8-0.7  c-0.2-0.2-0.4-0.3-0.6-0.5C32,73,31.9,73,31.8,72.9c-0.1-0.1-0.2-0.2-0.3-0.2c0,0,0,0,0,0c-0.2-0.2-0.4-0.4-0.6-0.5  c0,0-0.1-0.1-0.1-0.1c-0.2-0.2-0.4-0.4-0.6-0.6c-0.1-0.1-0.2-0.2-0.3-0.3c-0.1-0.1-0.2-0.2-0.3-0.3c-0.1-0.1-0.3-0.3-0.4-0.4  c0,0,0,0-0.1-0.1c-0.1-0.1-0.1-0.1-0.2-0.2c-0.2-0.2-0.4-0.4-0.5-0.6c-0.2-0.2-0.4-0.4-0.5-0.6c0,0,0,0,0,0  c-0.1-0.1-0.2-0.2-0.3-0.3c-0.1-0.1-0.2-0.2-0.3-0.3c-0.1-0.1-0.2-0.3-0.3-0.4c0,0,0,0-0.1-0.1c-0.1-0.1-0.2-0.2-0.2-0.3  c-0.1-0.2-0.3-0.4-0.4-0.6c-0.1-0.1-0.2-0.3-0.3-0.4c0,0,0-0.1-0.1-0.1c-0.2-0.3-0.4-0.6-0.6-0.8c-0.1-0.1-0.2-0.3-0.3-0.4  c-0.1-0.1-0.2-0.2-0.3-0.4c-0.1-0.2-0.3-0.4-0.4-0.6c-0.1-0.2-0.3-0.4-0.4-0.7c-0.1-0.2-0.3-0.4-0.4-0.7c-0.1-0.2-0.2-0.4-0.3-0.6  c-0.2-0.3-0.4-0.7-0.5-1c-0.1-0.2-0.2-0.3-0.2-0.5c0,0,0-0.1-0.1-0.1c-0.1-0.2-0.2-0.4-0.3-0.6c0-0.1-0.1-0.2-0.1-0.3  c-0.1-0.1-0.1-0.3-0.2-0.4c-0.1-0.1-0.1-0.3-0.2-0.4c-0.1-0.2-0.2-0.5-0.3-0.7c-0.1-0.3-0.2-0.6-0.3-0.8c0-0.1-0.1-0.1-0.1-0.2  c-0.1-0.2-0.1-0.3-0.2-0.5c0,0,0-0.1,0-0.1c-0.1-0.2-0.1-0.3-0.2-0.5c0,0,0-0.1,0-0.1c0,0,0,0,0-0.1c-0.1-0.1-0.1-0.3-0.1-0.4  c0-0.1-0.1-0.3-0.1-0.4c-0.1-0.4-0.2-0.7-0.3-1.1c-0.1-0.2-0.1-0.5-0.2-0.7c-0.1-0.2-0.1-0.4-0.2-0.6c0-0.1-0.1-0.2-0.1-0.4  c0-0.2-0.1-0.4-0.1-0.5c-0.1-0.3-0.1-0.6-0.2-0.9c0-0.1-0.1-0.2-0.1-0.4c0,0,0,0,0-0.1c0-0.2-0.1-0.3-0.1-0.5c0-0.2-0.1-0.4-0.1-0.7  c0-0.1,0-0.3-0.1-0.4c0-0.1,0-0.3-0.1-0.4c0-0.1,0-0.3-0.1-0.4c-0.1-0.5-0.1-0.9-0.2-1.4c0-0.2,0-0.4,0-0.6c0-0.2,0-0.4,0-0.7  c0,0,0,0,0,0c0-0.2,0-0.4,0-0.7c0-0.3,0-0.6,0-0.8c0-0.3,0-0.6,0-0.8c0-0.5,0-1,0-1.6c0-0.1,0-0.3,0-0.4c0-0.1,0-0.1,0-0.2  c0-0.1,0-0.2,0-0.3c0-0.2,0-0.3,0-0.5c0-0.1,0-0.2,0-0.3c0,0,0,0,0-0.1c0-0.2,0-0.4,0.1-0.6c0-0.2,0-0.3,0.1-0.5c0,0,0-0.1,0-0.1  c0-0.1,0-0.2,0-0.3c0-0.2,0.1-0.4,0.1-0.6c0-0.2,0-0.3,0.1-0.5c0,0,0,0,0-0.1c0-0.1,0-0.2,0-0.3c0-0.1,0-0.2,0.1-0.3  c0,0,0-0.1,0-0.1c0-0.1,0-0.3,0.1-0.4v0c0-0.2,0.1-0.4,0.1-0.5c0,0,0-0.1,0-0.1c0,0,0-0.1,0-0.1c0-0.1,0-0.2,0.1-0.3  c0-0.1,0-0.1,0-0.1c0,0,0-0.1,0-0.1c0-0.1,0-0.1,0-0.2c0,0,0-0.1,0-0.1c0-0.2,0.1-0.4,0.1-0.6c0,0,0-0.1,0-0.1  c0-0.2,0.1-0.3,0.1-0.5c0,0,0,0,0,0c0-0.1,0-0.2,0.1-0.3c0.1-0.2,0.1-0.4,0.2-0.6c0,0,0-0.1,0-0.1c0,0,0,0,0,0  c0.1-0.2,0.1-0.4,0.2-0.6c0,0,0,0,0-0.1c0,0,0,0,0,0c0.1-0.2,0.1-0.5,0.2-0.7c0,0,0,0,0,0v0c0.3-0.3,0.6-0.7,0.9-1  c0.2-0.2,0.4-0.4,0.6-0.6c0.1-0.1,0.2-0.3,0.4-0.4c0.3-0.3,0.6-0.6,1-0.9c0,0,0,0,0,0c0.1-0.1,0.2-0.2,0.3-0.3  c0.1-0.1,0.2-0.2,0.3-0.2c0.1-0.1,0.2-0.2,0.4-0.3c0.1-0.1,0.3-0.2,0.4-0.3c0.2-0.2,0.4-0.3,0.5-0.5c0.2-0.2,0.5-0.4,0.7-0.5  c0.1-0.1,0.3-0.2,0.4-0.3c0,0,0.1-0.1,0.1-0.1c0.2-0.1,0.4-0.3,0.6-0.4c0.2-0.2,0.4-0.3,0.6-0.5c0,0,0,0,0,0  c0.1-0.1,0.3-0.2,0.4-0.3c0.1-0.1,0.3-0.2,0.4-0.3c0.1-0.1,0.3-0.2,0.4-0.3c0,0,0,0,0,0c0,0,0,0,0,0c0.2-0.1,0.4-0.3,0.6-0.4  c0.3-0.2,0.7-0.4,1-0.6c0.2-0.1,0.4-0.2,0.6-0.3c0,0,0,0,0,0c0.2-0.1,0.5-0.3,0.7-0.4c0.1,0,0.2-0.1,0.2-0.1c0.1,0,0.2-0.1,0.2-0.1  c0.1-0.1,0.3-0.1,0.4-0.2c0.1,0,0.1-0.1,0.2-0.1c0.1-0.1,0.3-0.1,0.4-0.2c0.4-0.2,0.9-0.4,1.3-0.6c0,0,0,0,0,0  c0.1-0.1,0.2-0.1,0.4-0.1c0.2-0.1,0.5-0.2,0.7-0.3c0.2-0.1,0.4-0.2,0.7-0.3c0.2-0.1,0.5-0.2,0.7-0.3c0.2-0.1,0.5-0.2,0.7-0.2  c0,0,0.1,0,0.1,0c0,0,0.1,0,0.1,0c0.1,0,0.1,0,0.2-0.1c0.1,0,0.3-0.1,0.4-0.1c0.1,0,0.2-0.1,0.4-0.1c0.6-0.2,1.1-0.3,1.7-0.5  c0.1,0,0.2,0,0.3-0.1c0,0,0.1,0,0.1,0c0.2,0,0.3-0.1,0.5-0.1c0.2,0,0.3-0.1,0.5-0.1c0.3-0.1,0.6-0.1,0.9-0.2c0.2,0,0.3-0.1,0.5-0.1  c0.2,0,0.3-0.1,0.5-0.1c0.2,0,0.5-0.1,0.7-0.1c0,0,0.1,0,0.1,0c0.1,0,0.2,0,0.2,0c0.4-0.1,0.8-0.1,1.2-0.1c0.1,0,0.2,0,0.4,0  c0.6-0.1,1.1-0.1,1.7-0.1c0.2,0,0.4,0,0.5,0c0.1,0,0.3,0,0.4,0c0.2,0,0.4,0,0.5,0c0,0,0,0,0,0c0.2,0,0.4,0,0.7,0c0.2,0,0.4,0,0.7,0  c0,0,0,0,0,0c0.2,0,0.4,0,0.5,0c0.1,0,0.3,0,0.4,0c0.2,0,0.4,0,0.5,0c0.6,0,1.1,0.1,1.7,0.1c0.1,0,0.2,0,0.4,0  c0.4,0,0.8,0.1,1.2,0.1c0.1,0,0.2,0,0.2,0c0,0,0.1,0,0.1,0c0.2,0,0.5,0.1,0.7,0.1c0.2,0,0.3,0.1,0.5,0.1c0.2,0,0.3,0.1,0.5,0.1  c0.3,0.1,0.6,0.1,0.9,0.2c0.2,0,0.3,0.1,0.4,0.1c0.2,0,0.3,0.1,0.5,0.1c0,0,0.1,0,0.1,0c0.1,0,0.2,0,0.3,0.1  c0.3,0.1,0.6,0.1,0.8,0.2c0.3,0.1,0.6,0.2,0.8,0.2c0.1,0,0.2,0.1,0.4,0.1c0.1,0,0.3,0.1,0.4,0.1c0.1,0,0.3,0.1,0.4,0.1  c0.2,0.1,0.4,0.1,0.6,0.2c0.7,0.3,1.5,0.5,2.2,0.8c0.1,0.1,0.2,0.1,0.4,0.1c0,0,0,0,0,0c0.2,0.1,0.3,0.1,0.5,0.2  c0.2,0.1,0.3,0.1,0.5,0.2c0.3,0.2,0.7,0.3,1,0.5c0.1,0.1,0.3,0.1,0.4,0.2c0.2,0.1,0.3,0.2,0.5,0.2c0.3,0.2,0.6,0.3,0.9,0.5  c0.2,0.1,0.5,0.3,0.7,0.4c0.2,0.1,0.5,0.3,0.7,0.4c0.1,0.1,0.3,0.2,0.4,0.3c0.2,0.1,0.3,0.2,0.4,0.3c0.1,0.1,0.3,0.2,0.4,0.3  c0.1,0.1,0.3,0.2,0.4,0.3c0.2,0.1,0.3,0.2,0.5,0.3c0.1,0.1,0.3,0.2,0.4,0.3c0.1,0.1,0.3,0.2,0.4,0.3c0.1,0.1,0.3,0.2,0.4,0.3  c0.1,0.1,0.3,0.2,0.4,0.3c0.1,0.1,0.3,0.2,0.4,0.3c0.1,0.1,0.3,0.2,0.4,0.3c0.1,0.1,0.3,0.2,0.4,0.3c0.2,0.2,0.4,0.3,0.6,0.5  c0,0,0.1,0.1,0.1,0.1c0.2,0.2,0.4,0.3,0.5,0.5c0.1,0.1,0.3,0.2,0.4,0.4c0.5,0.5,1,1,1.5,1.5c0.1,0.1,0.2,0.3,0.4,0.4  c0.2,0.2,0.3,0.4,0.5,0.5v0c1.3,3.9,1.9,8,1.9,12.2C81.7,62,68.4,78.2,50,81.9C49.9,81.9,49.8,81.8,49.7,81.8z M51,96.4  c-0.2,0-0.3,0-0.5,0c-0.2,0-0.3,0-0.5,0c-0.2,0-0.3,0-0.5,0c-0.2,0-0.3,0-0.5,0c-16.5-0.4-31.2-11.2-36.4-26.9c-1.3-4-2-8.3-2-12.6  c0-0.3,0-0.6,0-0.9c0-0.3,0-0.6,0-0.9v0c0-0.3,0-0.6,0.1-0.9c0,0,0,0,0,0c0-0.2,0-0.5,0.1-0.7c0-0.1,0-0.2,0-0.3  c0-0.2,0-0.4,0.1-0.6c0-0.1,0-0.2,0-0.3c0,0,0-0.1,0-0.1c0.1-0.5,0.1-0.9,0.2-1.4c0-0.2,0.1-0.4,0.1-0.5c0.1-0.3,0.1-0.6,0.2-1  c0-0.1,0-0.2,0.1-0.4c0-0.2,0.1-0.4,0.1-0.6c0.1-0.4,0.2-0.8,0.3-1.1c0.1-0.2,0.1-0.4,0.2-0.7c0,0,0-0.1,0-0.1  c0.1-0.3,0.1-0.5,0.2-0.8c0.1-0.2,0.1-0.4,0.2-0.6c0-0.1,0.1-0.2,0.1-0.3c0-0.1,0-0.1,0.1-0.2c0.1-0.2,0.1-0.3,0.2-0.5  c0.1-0.3,0.2-0.7,0.4-1c0.1-0.2,0.2-0.5,0.3-0.7c0,0,0,0,0,0c0.1-0.3,0.2-0.5,0.3-0.8c0,0,0-0.1,0.1-0.1c0.1-0.2,0.2-0.5,0.3-0.7  c0.1-0.2,0.2-0.4,0.3-0.6c0.1-0.1,0.1-0.2,0.2-0.3c0.1-0.3,0.3-0.6,0.4-0.9c0-0.1,0.1-0.1,0.1-0.2c0,0,0,0,0,0c0,0.1,0,0.2,0,0.3  c0,0.2,0,0.4-0.1,0.6c0,0.2,0,0.5-0.1,0.7c0,0.1,0,0.1,0,0.2c0,0.3,0,0.5,0,0.8c0,0.2,0,0.4,0,0.7v0.1c0,0.1,0,0.2,0,0.2  c0,0.3,0,0.5,0,0.8c0,20.7,14.7,38.5,35,42.4l0.3,0.1l0,0h0c2.5,0.5,5.2,0.7,7.8,0.7c10,0,19.7-3.5,27.3-9.7c2-1.6,3.8-3.4,5.5-5.4  l0.2-0.3c0.5-0.6,1-1.2,1.5-1.8C85.1,84.9,69.3,96,51,96.4z"></path>
</svg>