<svg xmlns="http://www.w3.org/2000/svg" xmlns:xlink="http://www.w3.org/1999/xlink" id="Layer_1" x="0px" y="0px" viewBox="0 0 100 164" style="enable-background:new 0 0 100 164;" xml:space="preserve">
<style type="text/css">
	.st0{fill:#A9AEB3;}
</style>
<g>
	<path d="M1.9,139.2c-0.4-0.3-0.7-0.5-0.9-0.8s-0.3-0.6-0.3-0.9c0-0.4,0.1-0.7,0.3-0.9s0.5-0.4,0.8-0.4s0.8,0.2,1.4,0.6   c0.7,0.4,1.4,0.7,2,0.9c0.7,0.2,1.5,0.3,2.5,0.3c1.1,0,2-0.2,2.6-0.6c0.6-0.4,0.9-1,0.9-1.7c0-0.5-0.1-0.8-0.4-1.1   c-0.2-0.3-0.7-0.5-1.3-0.8c-0.6-0.2-1.5-0.5-2.7-0.7c-2.1-0.4-3.5-1-4.4-1.8s-1.3-1.8-1.3-3.1c0-1,0.3-1.9,0.9-2.7   c0.6-0.8,1.4-1.4,2.4-1.9c1-0.4,2.2-0.7,3.5-0.7c0.9,0,1.8,0.1,2.7,0.4s1.7,0.6,2.3,1.1c0.8,0.5,1.2,1.1,1.2,1.8   c0,0.4-0.1,0.7-0.3,0.9c-0.2,0.3-0.5,0.4-0.8,0.4c-0.2,0-0.4,0-0.6-0.1c-0.2-0.1-0.5-0.2-0.8-0.5c-0.6-0.4-1.2-0.7-1.8-0.9   c-0.5-0.2-1.2-0.3-2-0.3c-1,0-1.8,0.2-2.4,0.6s-0.9,1-0.9,1.7s0.3,1.2,0.8,1.5c0.5,0.4,1.6,0.7,3.1,1c1.6,0.3,2.8,0.7,3.7,1.1   c0.9,0.4,1.5,0.9,1.9,1.6c0.4,0.6,0.6,1.4,0.6,2.4c0,1.5-0.6,2.7-1.9,3.7c-1.3,0.9-3,1.4-5.1,1.4C5.4,140.6,3.5,140.1,1.9,139.2z"></path>
	<path d="M35.5,136.5c0.2,0.3,0.3,0.6,0.3,1c0,0.7-0.4,1.2-1.3,1.7c-0.8,0.5-1.7,0.8-2.7,1.1s-1.9,0.4-2.8,0.4   c-2.7,0-4.8-0.8-6.4-2.4c-1.6-1.6-2.3-3.7-2.3-6.5c0-1.7,0.3-3.3,1-4.7c0.7-1.4,1.7-2.4,2.9-3.1c1.2-0.7,2.7-1.1,4.2-1.1   c2.3,0,4.1,0.7,5.4,2.2s2,3.5,2,5.9c0,0.9-0.4,1.4-1.3,1.4H23.9c0.2,3.6,2,5.4,5.2,5.4c0.9,0,1.6-0.1,2.2-0.3s1.3-0.5,2-0.9   c0.1,0,0.3-0.1,0.6-0.3s0.6-0.2,0.8-0.2C35,136.1,35.3,136.2,35.5,136.5z M25.3,126.8c-0.8,0.9-1.3,2.1-1.5,3.6h9   c-0.1-1.6-0.5-2.8-1.2-3.7c-0.7-0.9-1.8-1.3-3.1-1.3C27.2,125.5,26.2,125.9,25.3,126.8z"></path>
	<path d="M54.9,123.2c0.3-0.2,0.6-0.2,0.9-0.2c0.4,0,0.8,0.2,1.2,0.5c0.3,0.3,0.5,0.7,0.5,1.1c0,0.2,0,0.5-0.1,0.7l-6.7,14.2   c-0.2,0.4-0.4,0.7-0.8,0.9c-0.3,0.2-0.7,0.3-1.1,0.3c-0.4,0-0.7-0.1-1.1-0.3c-0.3-0.2-0.6-0.5-0.8-0.9l-6.7-14.2   c-0.1-0.2-0.1-0.4-0.1-0.7c0-0.4,0.2-0.8,0.6-1.1s0.8-0.5,1.3-0.5c0.7,0,1.2,0.3,1.5,1l5.4,12l5.4-12   C54.5,123.7,54.7,123.4,54.9,123.2z"></path>
	<path d="M76.9,136.5c0.2,0.3,0.3,0.6,0.3,1c0,0.7-0.4,1.2-1.3,1.7c-0.8,0.5-1.7,0.8-2.7,1.1s-1.9,0.4-2.8,0.4   c-2.7,0-4.8-0.8-6.4-2.4c-1.6-1.6-2.3-3.7-2.3-6.5c0-1.7,0.3-3.3,1-4.7c0.7-1.4,1.7-2.4,2.9-3.1s2.7-1.1,4.2-1.1   c2.3,0,4.1,0.7,5.4,2.2s2,3.5,2,5.9c0,0.9-0.4,1.4-1.3,1.4H65.3c0.2,3.6,2,5.4,5.2,5.4c0.9,0,1.6-0.1,2.2-0.3s1.3-0.5,2-0.9   c0.1,0,0.3-0.1,0.6-0.3c0.3-0.2,0.6-0.2,0.8-0.2C76.5,136.1,76.7,136.2,76.9,136.5z M66.8,126.8c-0.8,0.9-1.3,2.1-1.5,3.6h9   c-0.1-1.6-0.5-2.8-1.2-3.7c-0.7-0.9-1.8-1.3-3.1-1.3C68.7,125.5,67.6,125.9,66.8,126.8z"></path>
	<path d="M99.2,129.8v9.1c0,0.5-0.2,1-0.5,1.2c-0.3,0.3-0.8,0.4-1.3,0.4s-1-0.2-1.3-0.5s-0.5-0.7-0.5-1.2V130c0-1.4-0.3-2.5-0.9-3.2   s-1.5-1-2.7-1c-1.4,0-2.6,0.4-3.4,1.3c-0.9,0.9-1.3,2.1-1.3,3.6v8.2c0,0.5-0.2,0.9-0.5,1.2s-0.7,0.5-1.3,0.5c-0.5,0-1-0.2-1.3-0.5   s-0.5-0.7-0.5-1.2v-14.2c0-0.5,0.2-0.9,0.5-1.2s0.8-0.5,1.3-0.5s0.9,0.2,1.2,0.5c0.3,0.3,0.5,0.7,0.5,1.2v1.4   c0.6-1,1.3-1.8,2.3-2.3s2.1-0.8,3.4-0.8C97.2,122.9,99.2,125.2,99.2,129.8z"></path>
</g>
<g>
	<path d="M3,161.6c-0.6-0.4-1.1-0.9-1.5-1.6c-0.3-0.7-0.5-1.4-0.5-2.3c0-0.9,0.2-1.7,0.5-2.4c0.4-0.7,0.9-1.2,1.5-1.6   c0.6-0.4,1.4-0.6,2.2-0.6c0.4,0,0.9,0.1,1.3,0.2c0.5,0.1,0.9,0.3,1.2,0.5c0.4,0.3,0.6,0.6,0.6,0.9c0,0.2-0.1,0.4-0.2,0.5   c-0.1,0.1-0.2,0.2-0.4,0.2c-0.1,0-0.2,0-0.3-0.1s-0.2-0.1-0.4-0.2c-0.3-0.2-0.6-0.3-0.8-0.4c-0.3-0.1-0.6-0.2-0.9-0.2   c-0.8,0-1.4,0.3-1.9,0.8s-0.7,1.3-0.7,2.3s0.2,1.7,0.7,2.2c0.4,0.5,1.1,0.8,1.9,0.8c0.4,0,0.7-0.1,0.9-0.2c0.3-0.1,0.5-0.2,0.8-0.4   c0.1-0.1,0.3-0.2,0.4-0.2s0.2-0.1,0.4-0.1c0.2,0,0.3,0.1,0.4,0.2c0.1,0.1,0.2,0.3,0.2,0.5s0,0.3-0.1,0.4c-0.1,0.1-0.2,0.3-0.4,0.4   c-0.4,0.2-0.8,0.4-1.2,0.5c-0.5,0.1-0.9,0.2-1.4,0.2C4.3,162.2,3.6,162,3,161.6z"></path>
	<path d="M20.7,154c0,0.3-0.1,0.5-0.2,0.6s-0.4,0.2-0.7,0.2l-0.5,0.1c-0.7,0.1-1.3,0.3-1.6,0.8c-0.4,0.4-0.5,1-0.5,1.6v4   c0,0.3-0.1,0.5-0.2,0.6c-0.2,0.1-0.4,0.2-0.6,0.2c-0.3,0-0.5-0.1-0.6-0.2c-0.2-0.1-0.3-0.4-0.3-0.6v-7.2c0-0.3,0.1-0.5,0.3-0.6   s0.4-0.2,0.6-0.2s0.4,0.1,0.6,0.2s0.2,0.3,0.2,0.6v0.8c0.2-0.5,0.6-0.9,1-1.2s1-0.4,1.5-0.5h0.2C20.4,153.2,20.7,153.5,20.7,154z"></path>
	<path d="M34,160.1c0.1,0.1,0.2,0.3,0.2,0.5c0,0.3-0.2,0.6-0.6,0.9c-0.4,0.2-0.9,0.4-1.3,0.5c-0.5,0.1-1,0.2-1.4,0.2   c-1.4,0-2.4-0.4-3.2-1.2c-0.8-0.8-1.2-1.9-1.2-3.3c0-0.9,0.2-1.7,0.5-2.3c0.3-0.7,0.8-1.2,1.5-1.6c0.6-0.4,1.3-0.6,2.1-0.6   c1.2,0,2.1,0.4,2.7,1.1c0.7,0.7,1,1.7,1,3c0,0.5-0.2,0.7-0.6,0.7h-5.5c0.1,1.8,1,2.7,2.6,2.7c0.4,0,0.8-0.1,1.1-0.2   c0.3-0.1,0.7-0.3,1-0.5c0,0,0.1-0.1,0.3-0.1s0.3-0.1,0.4-0.1C33.8,159.9,33.9,159.9,34,160.1z M28.9,155.2c-0.4,0.4-0.7,1-0.7,1.8   h4.6c0-0.8-0.2-1.4-0.6-1.8c-0.4-0.4-0.9-0.6-1.6-0.6C29.9,154.5,29.3,154.7,28.9,155.2z"></path>
	<path d="M47.7,154.1c0.6,0.6,0.8,1.5,0.8,2.6v4.6c0,0.3-0.1,0.5-0.2,0.6c-0.2,0.1-0.4,0.2-0.6,0.2c-0.3,0-0.5-0.1-0.6-0.2   c-0.2-0.2-0.2-0.4-0.2-0.6v-0.7c-0.2,0.5-0.6,0.9-1,1.1s-1,0.4-1.5,0.4c-0.6,0-1.1-0.1-1.5-0.3s-0.8-0.5-1.1-0.9s-0.4-0.9-0.4-1.4   c0-0.6,0.1-1.1,0.5-1.5c0.3-0.4,0.9-0.6,1.6-0.8c0.7-0.2,1.8-0.2,3.1-0.2H47v-0.5c0-0.7-0.1-1.1-0.4-1.4s-0.7-0.4-1.3-0.4   c-0.4,0-0.8,0.1-1.2,0.2c-0.4,0.1-0.8,0.3-1.2,0.5c-0.3,0.2-0.5,0.3-0.7,0.3s-0.3-0.1-0.4-0.2c-0.1-0.1-0.2-0.3-0.2-0.5   s0-0.3,0.1-0.5c0.1-0.1,0.3-0.3,0.5-0.4c0.4-0.2,0.9-0.4,1.4-0.5c0.6-0.1,1.1-0.2,1.6-0.2C46.2,153.2,47.1,153.5,47.7,154.1z    M46.1,160.2c0.4-0.4,0.6-1,0.6-1.7V158h-0.3c-0.9,0-1.6,0-2.1,0.1s-0.8,0.2-1.1,0.4c-0.2,0.2-0.3,0.5-0.3,0.8c0,0.4,0.2,0.8,0.5,1   c0.3,0.3,0.7,0.4,1.1,0.4C45.2,160.8,45.7,160.6,46.1,160.2z"></path>
	<path d="M61,161c0.1,0.1,0.2,0.3,0.2,0.5s-0.1,0.4-0.3,0.5s-0.5,0.2-0.8,0.1h-0.5c-1-0.1-1.7-0.4-2.1-0.9c-0.5-0.5-0.7-1.3-0.7-2.3   v-4.1h-1.1c-0.5,0-0.8-0.2-0.8-0.7c0-0.2,0.1-0.4,0.2-0.5c0.1-0.1,0.3-0.2,0.6-0.2h1.1v-1.8c0-0.3,0.1-0.5,0.2-0.6   c0.2-0.2,0.4-0.2,0.6-0.2s0.5,0.1,0.7,0.2c0.2,0.2,0.2,0.4,0.2,0.6v1.8h1.7c0.2,0,0.4,0.1,0.6,0.2c0.1,0.1,0.2,0.3,0.2,0.5   s-0.1,0.4-0.2,0.5c-0.1,0.1-0.3,0.2-0.6,0.2h-1.7v4.3c0,0.6,0.1,1,0.3,1.2s0.6,0.4,1,0.4h0.5C60.7,160.8,60.9,160.9,61,161z"></path>
	<path d="M67.8,151.2c-0.2-0.2-0.3-0.4-0.3-0.7s0.1-0.5,0.3-0.7c0.2-0.2,0.5,0.7,0.8,0.7s0.6-0.9,0.8-0.7c0.2,0.2,0.3,0.4,0.3,0.7   s-0.1,0.6-0.3,0.7c-0.2,0.2-0.5,0.3-0.8,0.3S68,151.4,67.8,151.2z M68,161.9c-0.2-0.1-0.3-0.4-0.3-0.6v-7.2c0-0.3,0.1-0.5,0.3-0.6   c0.2-0.1,0.4-0.2,0.6-0.2s0.5,0.1,0.6,0.2c0.2,0.1,0.2,0.4,0.2,0.6v7.2c0,0.3-0.1,0.5-0.2,0.6c-0.2,0.1-0.4,0.2-0.6,0.2   S68.2,162.1,68,161.9z"></path>
	<path d="M83.7,153.4c0.1-0.1,0.3-0.1,0.4-0.1c0.2,0,0.4,0.1,0.6,0.2c0.2,0.2,0.3,0.3,0.3,0.5c0,0.1,0,0.2-0.1,0.3l-3.4,7.1   c-0.1,0.2-0.2,0.3-0.4,0.4c-0.2,0.1-0.3,0.1-0.5,0.1s-0.4,0-0.5-0.1c-0.2-0.1-0.3-0.2-0.4-0.4l-3.4-7.1c0-0.1-0.1-0.2-0.1-0.3   c0-0.2,0.1-0.4,0.3-0.5c0.2-0.2,0.4-0.2,0.6-0.2c0.3,0,0.6,0.2,0.8,0.5l2.7,6.1l2.7-6C83.5,153.6,83.6,153.5,83.7,153.4z"></path>
	<path d="M98.8,160.1c0.1,0.1,0.2,0.3,0.2,0.5c0,0.3-0.2,0.6-0.6,0.9c-0.4,0.2-0.9,0.4-1.3,0.5c-0.5,0.1-1,0.2-1.4,0.2   c-1.4,0-2.4-0.4-3.2-1.2c-0.8-0.8-1.2-1.9-1.2-3.3c0-0.9,0.2-1.7,0.5-2.3c0.3-0.7,0.8-1.2,1.5-1.6c0.6-0.4,1.3-0.6,2.1-0.6   c1.2,0,2.1,0.4,2.7,1.1c0.7,0.7,1,1.7,1,3c0,0.5-0.2,0.7-0.6,0.7H93c0.1,1.8,1,2.7,2.6,2.7c0.4,0,0.8-0.1,1.1-0.2s0.7-0.3,1-0.5   c0,0,0.1-0.1,0.3-0.1c0.2-0.1,0.3-0.1,0.4-0.1C98.5,159.9,98.7,159.9,98.8,160.1z M93.7,155.2c-0.4,0.4-0.7,1-0.7,1.8h4.6   c0-0.8-0.2-1.4-0.6-1.8c-0.4-0.4-0.9-0.6-1.6-0.6C94.6,154.5,94.1,154.7,93.7,155.2z"></path>
</g>
<path class="st0" d="M99.9,52.3L99.9,52.3l0-0.2c0,0,0,0,0,0c0-0.7,0-1.4,0-2.1c0-12.6-4.7-24.7-13.3-33.9  C78.2,6.8,66.7,1.2,54.2,0.2c-2.8-0.2-5.6-0.2-8.4,0c-12.5,1-24,6.7-32.5,15.9C4.7,25.3,0,37.4,0,50c0,0.7,0,1.5,0,2.1  c1.1,25.7,21.6,46.3,47.1,47.8c0.6,0,1.1,0.1,1.7,0.1c0,0,0,0,0.1,0h0c0.2,0,0.4,0,0.5,0c0.2,0,0.4,0,0.6,0c0.2,0,0.4,0,0.6,0  c0.2,0,0.4,0,0.5,0C77.3,99.4,98.8,78.5,99.9,52.3z M3.7,52c0-0.6,0-1.3,0-2c0-11.7,4.4-22.9,12.3-31.5C23.8,10,34.6,4.8,46.1,3.8  c1.3-0.1,2.6-0.2,3.9-0.2c1.3,0,2.6,0.1,3.9,0.2c11.5,1,22.3,6.2,30.2,14.7C92,27.1,96.4,38.3,96.4,50c0,0.6,0,1.2,0,1.8  c0,0.1,0,0.1,0,0.2c0,0.1-0.1,0.3-0.1,0.4c0,0.2-0.1,0.3-0.1,0.5c0,0.2-0.1,0.4-0.2,0.6c-0.1,0.2-0.1,0.4-0.2,0.6  c-0.1,0.2-0.1,0.4-0.2,0.6c-0.1,0.2-0.1,0.4-0.2,0.6c0,0,0,0,0,0c-0.1,0.2-0.1,0.4-0.2,0.6c-0.1,0.2-0.1,0.4-0.2,0.6  c-0.1,0.2-0.1,0.4-0.2,0.6c-0.1,0.2-0.1,0.4-0.2,0.6c-0.3,0.7-0.6,1.4-0.9,2.1c-0.1,0.2-0.2,0.4-0.2,0.5c-0.1,0.2-0.2,0.4-0.3,0.6  c-0.1,0.2-0.2,0.4-0.3,0.6c0-0.3,0.1-0.6,0.1-0.9c0-0.2,0-0.5,0.1-0.7l0-0.2c0-0.3,0-0.5,0-0.8c0-0.2,0-0.4,0-0.7c0-0.1,0-0.2,0-0.3  c0-0.3,0-0.5,0-0.8c0-10.2-3.6-20-10.1-27.8c-0.1-0.1-0.2-0.2-0.2-0.3C74.6,19.2,62.6,13.7,50,13.7c-0.3,0-0.6,0-1,0  c-0.1,0-0.1,0-0.2,0c-0.1,0-0.3,0-0.4,0c-0.4,0-0.9,0-1.3,0.1c-0.1,0-0.3,0-0.4,0c-0.1,0-0.3,0-0.4,0c-0.2,0-0.5,0-0.7,0.1  c-0.2,0-0.4,0-0.5,0.1c-0.2,0-0.4,0-0.6,0.1c0,0-0.1,0-0.1,0c-0.2,0-0.4,0.1-0.6,0.1c-0.2,0-0.4,0.1-0.6,0.1  c-0.4,0.1-0.8,0.1-1.2,0.2c-0.2,0-0.4,0.1-0.6,0.1c0,0,0,0-0.1,0c-1,0.2-2,0.4-2.9,0.7c-0.2,0.1-0.4,0.1-0.6,0.2  c-0.2,0.1-0.4,0.1-0.6,0.2c-0.6,0.2-1.2,0.4-1.7,0.6l-0.6,0.2c-0.1,0-0.2,0.1-0.3,0.1c-0.1,0.1-0.3,0.1-0.4,0.2  c-0.3,0.1-0.6,0.3-0.9,0.4c-0.2,0.1-0.3,0.1-0.5,0.2c-0.6,0.3-1.2,0.5-1.8,0.8c-0.5,0.3-1,0.5-1.5,0.8c-0.2,0.1-0.3,0.2-0.5,0.3  c-0.2,0.1-0.4,0.2-0.5,0.3c-0.1,0.1-0.3,0.2-0.4,0.3c-0.2,0.1-0.3,0.2-0.5,0.3c-0.3,0.2-0.7,0.4-1,0.6c-0.2,0.1-0.3,0.2-0.5,0.3  c-0.1,0.1-0.3,0.2-0.4,0.3c0,0-0.1,0-0.1,0.1c0,0-0.1,0.1-0.1,0.1c-0.1,0.1-0.2,0.1-0.3,0.2c0,0,0,0-0.1,0c0,0,0,0,0,0  c-0.1,0.1-0.3,0.2-0.4,0.3c-0.2,0.1-0.3,0.2-0.5,0.3c-0.3,0.2-0.6,0.5-0.9,0.7c-0.1,0.1-0.3,0.2-0.4,0.3v0c0,0,0,0-0.1,0  c-0.3,0.2-0.6,0.5-0.9,0.8c-0.3,0.3-0.6,0.5-0.9,0.8c-0.1,0.1-0.3,0.3-0.4,0.4c-0.3,0.3-0.6,0.5-0.8,0.8c-0.2,0.2-0.4,0.4-0.6,0.6  c-0.2,0.2-0.3,0.3-0.5,0.5c-0.1,0.1-0.2,0.2-0.3,0.4c-0.1,0.1-0.2,0.2-0.3,0.3c-0.2,0.3-0.5,0.5-0.7,0.8v0L17,29.1l0,0  C10.5,36.9,6.9,46.7,6.9,56.9c0,4.7,0.7,9.3,2.2,13.7c0.1,0.3,0.2,0.5,0.3,0.8c0.1,0.3,0.2,0.5,0.3,0.8c0.2,0.5,0.4,1,0.6,1.6  c0.1,0.2,0.2,0.4,0.3,0.6C6.5,67.8,4,60.2,3.7,52z M87.3,69.4c-0.2,0.2-0.3,0.3-0.5,0.5c-0.1,0.1-0.2,0.2-0.3,0.3  c-0.1,0.1-0.2,0.3-0.4,0.4c-0.1,0.1-0.2,0.3-0.4,0.4c-0.1,0.1-0.3,0.3-0.4,0.4c-0.1,0.1-0.2,0.2-0.4,0.4c-0.1,0.1-0.3,0.3-0.4,0.4  c-0.1,0.1-0.3,0.2-0.4,0.4c-0.1,0.1-0.3,0.2-0.4,0.4c-0.1,0.1-0.3,0.2-0.4,0.3c-0.1,0.1-0.2,0.2-0.4,0.3c-0.1,0.1-0.3,0.2-0.5,0.4  c-0.1,0.1-0.3,0.2-0.4,0.3c-0.3,0.2-0.5,0.4-0.8,0.6c0,0,0,0,0,0c-0.1,0.1-0.3,0.2-0.4,0.3c-0.2,0.1-0.3,0.2-0.5,0.3  c-0.1,0.1-0.3,0.2-0.4,0.3c-0.1,0.1-0.3,0.2-0.4,0.3c-0.1,0.1-0.3,0.2-0.4,0.3c-0.1,0.1-0.3,0.2-0.4,0.3c-0.1,0.1-0.3,0.2-0.4,0.3  c-0.2,0.1-0.3,0.2-0.5,0.3c-0.2,0.1-0.3,0.2-0.5,0.3c-0.2,0.1-0.3,0.2-0.5,0.3c-0.2,0.1-0.3,0.2-0.5,0.3c-0.2,0.1-0.3,0.2-0.5,0.2  c-0.2,0.1-0.3,0.2-0.5,0.2c-0.2,0.1-0.3,0.2-0.5,0.2c-0.2,0.1-0.3,0.2-0.5,0.2c-0.2,0.1-0.3,0.1-0.5,0.2c-0.3,0.1-0.6,0.3-1,0.4  c-0.2,0.1-0.3,0.1-0.5,0.2c-0.2,0.1-0.3,0.1-0.5,0.2c-0.3,0.1-0.7,0.3-1,0.4c-0.2,0.1-0.3,0.1-0.5,0.2c-0.2,0.1-0.4,0.1-0.6,0.2  c-0.1,0-0.2,0.1-0.4,0.1c-0.2,0.1-0.3,0.1-0.5,0.2c-0.2,0.1-0.3,0.1-0.5,0.2c-0.5,0.1-1,0.3-1.5,0.4c-0.2,0-0.3,0.1-0.5,0.1  c-0.2,0-0.3,0.1-0.5,0.1c-0.3,0.1-0.6,0.1-1,0.2c0,0-0.1,0-0.1,0C65,82,64.8,82,64.7,82c-0.2,0-0.3,0.1-0.5,0.1c-0.1,0-0.1,0-0.2,0  c-0.2,0-0.4,0.1-0.6,0.1c-0.1,0-0.2,0-0.2,0c-1.1,0.2-2.3,0.3-3.4,0.3C75,75.8,85.4,60.5,85.4,43.1c0-1.4-0.1-2.9-0.2-4.3  c2.8,5.5,4.4,11.7,4.4,18c0,0.5,0,1,0,1.6c0,0.1,0,0.3,0,0.4c0,0.1,0,0.3,0,0.4c0,0.3,0,0.5-0.1,0.8c0,0.2,0,0.5-0.1,0.7  c0,0.2,0,0.3-0.1,0.5l0,0.4c0,0.2-0.1,0.4-0.1,0.7c0,0.2,0,0.4-0.1,0.5c0,0.2-0.1,0.4-0.1,0.6c0,0.2-0.1,0.4-0.1,0.5  c0,0,0,0.1,0,0.1c0,0.2-0.1,0.5-0.1,0.7c0,0.1,0,0.1,0,0.1c0,0.2-0.1,0.4-0.1,0.6c-0.1,0.2-0.1,0.5-0.2,0.7c0,0.2-0.1,0.3-0.1,0.5  c0,0.1-0.1,0.2-0.1,0.3c0,0.1-0.1,0.3-0.1,0.4c0,0.1-0.1,0.2-0.1,0.3c-0.1,0.2-0.1,0.4-0.2,0.6c0,0,0,0,0,0  c-0.1,0.2-0.2,0.5-0.2,0.7C87.5,69.2,87.4,69.3,87.3,69.4z M49.7,81.8c-0.1,0-0.2,0-0.3-0.1c-0.3-0.1-0.6-0.1-0.9-0.2  c-0.3-0.1-0.6-0.1-0.9-0.2c-0.1,0-0.3-0.1-0.4-0.1c-0.1,0-0.3-0.1-0.4-0.1c-0.1,0-0.3-0.1-0.4-0.1c-0.1,0-0.3-0.1-0.4-0.1  c0,0,0,0-0.1,0c0,0-0.1,0-0.1,0c-0.2-0.1-0.5-0.1-0.7-0.2c-0.3-0.1-0.5-0.2-0.8-0.3c0,0,0,0-0.1,0c-0.2-0.1-0.4-0.2-0.7-0.2  c-0.1,0-0.1-0.1-0.2-0.1c-0.2-0.1-0.3-0.1-0.5-0.2c-0.1,0-0.2-0.1-0.3-0.1c-0.1-0.1-0.3-0.1-0.4-0.2c-0.1-0.1-0.3-0.1-0.4-0.2  c-0.2-0.1-0.4-0.2-0.6-0.3c0,0,0,0,0,0c-0.2-0.1-0.4-0.2-0.6-0.3c-0.1-0.1-0.2-0.1-0.4-0.2c-0.2-0.1-0.4-0.2-0.7-0.3  c-0.2-0.1-0.4-0.2-0.6-0.3c0,0,0,0-0.1,0c0,0,0,0,0,0c0,0,0,0,0,0c-0.2-0.1-0.4-0.2-0.6-0.4c0,0-0.1,0-0.1-0.1  c-0.2-0.1-0.3-0.2-0.5-0.3c-0.1-0.1-0.2-0.1-0.3-0.2c-0.1-0.1-0.3-0.2-0.4-0.3c-0.1-0.1-0.2-0.1-0.3-0.2c-0.1-0.1-0.3-0.2-0.4-0.3  c-0.1-0.1-0.2-0.1-0.3-0.2c-0.2-0.1-0.4-0.3-0.6-0.4c-0.2-0.1-0.3-0.2-0.5-0.3c0,0,0,0-0.1-0.1c-0.1-0.1-0.1-0.1-0.2-0.2  c-0.1-0.1-0.2-0.1-0.3-0.2c-0.1-0.1-0.2-0.2-0.3-0.2c-0.2-0.1-0.4-0.3-0.5-0.4c0,0,0,0,0,0c-0.3-0.2-0.6-0.4-0.8-0.7  c-0.2-0.2-0.4-0.3-0.6-0.5c-0.1-0.1-0.2-0.1-0.2-0.2c-0.1-0.1-0.2-0.2-0.3-0.2c0,0,0,0,0,0c-0.2-0.2-0.4-0.4-0.6-0.5  c0,0-0.1-0.1-0.1-0.1c-0.2-0.2-0.4-0.4-0.6-0.6c-0.1-0.1-0.2-0.2-0.3-0.3c-0.1-0.1-0.2-0.2-0.3-0.3c-0.1-0.1-0.3-0.3-0.4-0.4  c0,0,0,0-0.1-0.1c-0.1-0.1-0.1-0.1-0.2-0.2c-0.2-0.2-0.4-0.4-0.5-0.6c-0.2-0.2-0.4-0.4-0.5-0.6c0,0,0,0,0,0  c-0.1-0.1-0.2-0.2-0.3-0.3c-0.1-0.1-0.2-0.2-0.3-0.3c-0.1-0.1-0.2-0.3-0.3-0.4c0,0,0,0-0.1-0.1c-0.1-0.1-0.2-0.2-0.2-0.3  c-0.1-0.2-0.3-0.4-0.4-0.6c-0.1-0.1-0.2-0.3-0.3-0.4c0,0,0-0.1-0.1-0.1c-0.2-0.3-0.4-0.6-0.6-0.8c-0.1-0.1-0.2-0.3-0.3-0.4  c-0.1-0.1-0.2-0.2-0.3-0.4c-0.1-0.2-0.3-0.4-0.4-0.6c-0.1-0.2-0.3-0.4-0.4-0.7c-0.1-0.2-0.3-0.4-0.4-0.7c-0.1-0.2-0.2-0.4-0.3-0.6  c-0.2-0.3-0.4-0.7-0.5-1c-0.1-0.2-0.2-0.3-0.2-0.5c0,0,0-0.1-0.1-0.1c-0.1-0.2-0.2-0.4-0.3-0.6c0-0.1-0.1-0.2-0.1-0.3  c-0.1-0.1-0.1-0.3-0.2-0.4c-0.1-0.1-0.1-0.3-0.2-0.4c-0.1-0.2-0.2-0.5-0.3-0.7c-0.1-0.3-0.2-0.6-0.3-0.8c0-0.1-0.1-0.1-0.1-0.2  c-0.1-0.2-0.1-0.3-0.2-0.5c0,0,0-0.1,0-0.1c-0.1-0.2-0.1-0.3-0.2-0.5c0,0,0-0.1,0-0.1c0,0,0,0,0-0.1c-0.1-0.1-0.1-0.3-0.1-0.4  c0-0.1-0.1-0.3-0.1-0.4c-0.1-0.4-0.2-0.7-0.3-1.1c-0.1-0.2-0.1-0.5-0.2-0.7c-0.1-0.2-0.1-0.4-0.2-0.6c0-0.1-0.1-0.2-0.1-0.4  c0-0.2-0.1-0.4-0.1-0.5c-0.1-0.3-0.1-0.6-0.2-0.9c0-0.1-0.1-0.2-0.1-0.4c0,0,0,0,0-0.1c0-0.2-0.1-0.3-0.1-0.5c0-0.2-0.1-0.4-0.1-0.7  c0-0.1,0-0.3-0.1-0.4c0-0.1,0-0.3-0.1-0.4c0-0.1,0-0.3-0.1-0.4c-0.1-0.5-0.1-0.9-0.2-1.4c0-0.2,0-0.4,0-0.6c0-0.2,0-0.4,0-0.7  c0,0,0,0,0,0c0-0.2,0-0.4,0-0.7c0-0.3,0-0.6,0-0.8c0-0.3,0-0.6,0-0.8c0-0.5,0-1,0-1.6c0-0.1,0-0.3,0-0.4c0-0.1,0-0.1,0-0.2  c0-0.1,0-0.2,0-0.3c0-0.2,0-0.3,0-0.5c0-0.1,0-0.2,0-0.3c0,0,0,0,0-0.1c0-0.2,0-0.4,0.1-0.6c0-0.2,0-0.3,0.1-0.5c0,0,0-0.1,0-0.1  c0-0.1,0-0.2,0-0.3c0-0.2,0.1-0.4,0.1-0.6c0-0.2,0-0.3,0.1-0.5c0,0,0,0,0-0.1c0-0.1,0-0.2,0-0.3c0-0.1,0-0.2,0.1-0.3  c0,0,0-0.1,0-0.1c0-0.1,0-0.3,0.1-0.4v0c0-0.2,0.1-0.4,0.1-0.5c0,0,0-0.1,0-0.1c0,0,0-0.1,0-0.1c0-0.1,0-0.2,0.1-0.3  c0-0.1,0-0.1,0-0.1c0,0,0-0.1,0-0.1c0-0.1,0-0.1,0-0.2c0,0,0-0.1,0-0.1c0-0.2,0.1-0.4,0.1-0.6c0,0,0-0.1,0-0.1  c0-0.2,0.1-0.3,0.1-0.5c0,0,0,0,0,0c0-0.1,0-0.2,0.1-0.3c0.1-0.2,0.1-0.4,0.2-0.6c0,0,0-0.1,0-0.1c0,0,0,0,0,0  c0.1-0.2,0.1-0.4,0.2-0.6c0,0,0,0,0-0.1c0,0,0,0,0,0c0.1-0.2,0.1-0.5,0.2-0.7c0,0,0,0,0,0v0c0.3-0.3,0.6-0.7,0.9-1  c0.2-0.2,0.4-0.4,0.6-0.6c0.1-0.1,0.2-0.3,0.4-0.4c0.3-0.3,0.6-0.6,1-0.9c0,0,0,0,0,0c0.1-0.1,0.2-0.2,0.3-0.3  c0.1-0.1,0.2-0.2,0.3-0.2c0.1-0.1,0.2-0.2,0.4-0.3c0.1-0.1,0.3-0.2,0.4-0.3c0.2-0.2,0.4-0.3,0.5-0.5c0.2-0.2,0.5-0.4,0.7-0.5  c0.1-0.1,0.3-0.2,0.4-0.3c0,0,0.1-0.1,0.1-0.1c0.2-0.1,0.4-0.3,0.6-0.4c0.2-0.2,0.4-0.3,0.6-0.5c0,0,0,0,0,0  c0.1-0.1,0.3-0.2,0.4-0.3c0.1-0.1,0.3-0.2,0.4-0.3c0.1-0.1,0.3-0.2,0.4-0.3c0,0,0,0,0,0c0,0,0,0,0,0c0.2-0.1,0.4-0.3,0.6-0.4  c0.3-0.2,0.7-0.4,1-0.6c0.2-0.1,0.4-0.2,0.6-0.3c0,0,0,0,0,0c0.2-0.1,0.5-0.3,0.7-0.4c0.1,0,0.2-0.1,0.2-0.1c0.1,0,0.2-0.1,0.2-0.1  c0.1-0.1,0.3-0.1,0.4-0.2c0.1,0,0.1-0.1,0.2-0.1c0.1-0.1,0.3-0.1,0.4-0.2c0.4-0.2,0.9-0.4,1.3-0.6c0,0,0,0,0,0  c0.1-0.1,0.2-0.1,0.4-0.1c0.2-0.1,0.5-0.2,0.7-0.3c0.2-0.1,0.4-0.2,0.7-0.3c0.2-0.1,0.5-0.2,0.7-0.3c0.2-0.1,0.5-0.2,0.7-0.2  c0,0,0.1,0,0.1,0c0,0,0.1,0,0.1,0c0.1,0,0.1,0,0.2-0.1c0.1,0,0.3-0.1,0.4-0.1c0.1,0,0.2-0.1,0.4-0.1c0.6-0.2,1.1-0.3,1.7-0.5  c0.1,0,0.2,0,0.3-0.1c0,0,0.1,0,0.1,0c0.2,0,0.3-0.1,0.5-0.1c0.2,0,0.3-0.1,0.5-0.1c0.3-0.1,0.6-0.1,0.9-0.2c0.2,0,0.3-0.1,0.5-0.1  c0.2,0,0.3-0.1,0.5-0.1c0.2,0,0.5-0.1,0.7-0.1c0,0,0.1,0,0.1,0c0.1,0,0.2,0,0.2,0c0.4-0.1,0.8-0.1,1.2-0.1c0.1,0,0.2,0,0.4,0  c0.6-0.1,1.1-0.1,1.7-0.1c0.2,0,0.4,0,0.5,0c0.1,0,0.3,0,0.4,0c0.2,0,0.4,0,0.5,0c0,0,0,0,0,0c0.2,0,0.4,0,0.7,0c0.2,0,0.4,0,0.7,0  c0,0,0,0,0,0c0.2,0,0.4,0,0.5,0c0.1,0,0.3,0,0.4,0c0.2,0,0.4,0,0.5,0c0.6,0,1.1,0.1,1.7,0.1c0.1,0,0.2,0,0.4,0  c0.4,0,0.8,0.1,1.2,0.1c0.1,0,0.2,0,0.2,0c0,0,0.1,0,0.1,0c0.2,0,0.5,0.1,0.7,0.1c0.2,0,0.3,0.1,0.5,0.1c0.2,0,0.3,0.1,0.5,0.1  c0.3,0.1,0.6,0.1,0.9,0.2c0.2,0,0.3,0.1,0.4,0.1c0.2,0,0.3,0.1,0.5,0.1c0,0,0.1,0,0.1,0c0.1,0,0.2,0,0.3,0.1  c0.3,0.1,0.6,0.1,0.8,0.2c0.3,0.1,0.6,0.2,0.8,0.2c0.1,0,0.2,0.1,0.4,0.1c0.1,0,0.3,0.1,0.4,0.1c0.1,0,0.3,0.1,0.4,0.1  c0.2,0.1,0.4,0.1,0.6,0.2c0.7,0.3,1.5,0.5,2.2,0.8c0.1,0.1,0.2,0.1,0.4,0.1c0,0,0,0,0,0c0.2,0.1,0.3,0.1,0.5,0.2  c0.2,0.1,0.3,0.1,0.5,0.2c0.3,0.2,0.7,0.3,1,0.5c0.1,0.1,0.3,0.1,0.4,0.2c0.2,0.1,0.3,0.2,0.5,0.2c0.3,0.2,0.6,0.3,0.9,0.5  c0.2,0.1,0.5,0.3,0.7,0.4c0.2,0.1,0.5,0.3,0.7,0.4c0.1,0.1,0.3,0.2,0.4,0.3c0.2,0.1,0.3,0.2,0.4,0.3c0.1,0.1,0.3,0.2,0.4,0.3  c0.1,0.1,0.3,0.2,0.4,0.3c0.2,0.1,0.3,0.2,0.5,0.3c0.1,0.1,0.3,0.2,0.4,0.3c0.1,0.1,0.3,0.2,0.4,0.3c0.1,0.1,0.3,0.2,0.4,0.3  c0.1,0.1,0.3,0.2,0.4,0.3c0.1,0.1,0.3,0.2,0.4,0.3c0.1,0.1,0.3,0.2,0.4,0.3c0.1,0.1,0.3,0.2,0.4,0.3c0.2,0.2,0.4,0.3,0.6,0.5  c0,0,0.1,0.1,0.1,0.1c0.2,0.2,0.4,0.3,0.5,0.5c0.1,0.1,0.3,0.2,0.4,0.4c0.5,0.5,1,1,1.5,1.5c0.1,0.1,0.2,0.3,0.4,0.4  c0.2,0.2,0.3,0.4,0.5,0.5v0c1.3,3.9,1.9,8,1.9,12.2C81.7,62,68.4,78.2,50,81.9C49.9,81.9,49.8,81.8,49.7,81.8z M51,96.4  c-0.2,0-0.3,0-0.5,0c-0.2,0-0.3,0-0.5,0c-0.2,0-0.3,0-0.5,0c-0.2,0-0.3,0-0.5,0c-16.5-0.4-31.2-11.2-36.4-26.9c-1.3-4-2-8.3-2-12.6  c0-0.3,0-0.6,0-0.9c0-0.3,0-0.6,0-0.9v0c0-0.3,0-0.6,0.1-0.9c0,0,0,0,0,0c0-0.2,0-0.5,0.1-0.7c0-0.1,0-0.2,0-0.3  c0-0.2,0-0.4,0.1-0.6c0-0.1,0-0.2,0-0.3c0,0,0-0.1,0-0.1c0.1-0.5,0.1-0.9,0.2-1.4c0-0.2,0.1-0.4,0.1-0.5c0.1-0.3,0.1-0.6,0.2-1  c0-0.1,0-0.2,0.1-0.4c0-0.2,0.1-0.4,0.1-0.6c0.1-0.4,0.2-0.8,0.3-1.1c0.1-0.2,0.1-0.4,0.2-0.7c0,0,0-0.1,0-0.1  c0.1-0.3,0.1-0.5,0.2-0.8c0.1-0.2,0.1-0.4,0.2-0.6c0-0.1,0.1-0.2,0.1-0.3c0-0.1,0-0.1,0.1-0.2c0.1-0.2,0.1-0.3,0.2-0.5  c0.1-0.3,0.2-0.7,0.4-1c0.1-0.2,0.2-0.5,0.3-0.7c0,0,0,0,0,0c0.1-0.3,0.2-0.5,0.3-0.8c0,0,0-0.1,0.1-0.1c0.1-0.2,0.2-0.5,0.3-0.7  c0.1-0.2,0.2-0.4,0.3-0.6c0.1-0.1,0.1-0.2,0.2-0.3c0.1-0.3,0.3-0.6,0.4-0.9c0-0.1,0.1-0.1,0.1-0.2c0,0,0,0,0,0c0,0.1,0,0.2,0,0.3  c0,0.2,0,0.4-0.1,0.6c0,0.2,0,0.5-0.1,0.7c0,0.1,0,0.1,0,0.2c0,0.3,0,0.5,0,0.8c0,0.2,0,0.4,0,0.7v0.1c0,0.1,0,0.2,0,0.2  c0,0.3,0,0.5,0,0.8c0,20.7,14.7,38.5,35,42.4l0.3,0.1l0,0h0c2.5,0.5,5.2,0.7,7.8,0.7c10,0,19.7-3.5,27.3-9.7c2-1.6,3.8-3.4,5.5-5.4  l0.2-0.3c0.5-0.6,1-1.2,1.5-1.8C85.1,84.9,69.3,96,51,96.4z"></path>
</svg>